G04 ================== begin FILE IDENTIFICATION RECORD ==================*
G04 Layout Name:  CALITESCU ROMEO-ALEXANDRU PROIECT 1 431E.brd*
G04 Film Name:    FAB*
G04 File Format:  Gerber RS274X*
G04 File Origin:  Cadence Allegro 16.6-2015-S059*
G04 Origin Date:  Thu Dec 15 19:40:34 2022*
G04 *
G04 Layer:  MANUFACTURING/NCDRILL_LEGEND*
G04 Layer:  MANUFACTURING/NCDRILL_FIGURE*
G04 Layer:  MANUFACTURING/XSECTION_CHART*
G04 Layer:  MANUFACTURING/NCLEGEND-1-2*
G04 Layer:  DRAWING FORMAT/OUTLINE*
G04 Layer:  BOARD GEOMETRY/OUTLINE*
G04 *
G04 Offset:    (0.0000 0.0000)*
G04 Mirror:    No*
G04 Mode:      Positive*
G04 Rotation:  0*
G04 FullContactRelief:  No*
G04 UndefLineWidth:     0.0000*
G04 ================== end FILE IDENTIFICATION RECORD ====================*
%FSLAX25Y25*MOMM*%
%IR0*IPPOS*OFA0.00000B0.00000*MIA0B0*SFA1.00000B1.00000*%
%AMMACRO10*
1,1,0.0,.635,0.0*
20,1,0.0,.635,0.0,.625353,-.110267,0.0*
1,1,0.0,.625353,-.110267*
20,1,0.0,.625353,-.110267,.596705,-.217183,0.0*
1,1,0.0,.596705,-.217183*
20,1,0.0,.596705,-.217183,.549926,-.3175,0.0*
1,1,0.0,.549926,-.3175*
20,1,0.0,.549926,-.3175,.486438,-.40817,0.0*
1,1,0.0,.486438,-.40817*
20,1,0.0,.486438,-.40817,.40817,-.486438,0.0*
1,1,0.0,.40817,-.486438*
20,1,0.0,.40817,-.486438,.3175,-.549926,0.0*
1,1,0.0,.3175,-.549926*
20,1,0.0,.3175,-.549926,.217183,-.596705,0.0*
1,1,0.0,.217183,-.596705*
20,1,0.0,.217183,-.596705,.110267,-.625353,0.0*
1,1,0.0,.110267,-.625353*
20,1,0.0,.110267,-.625353,0.0,-.635,0.0*
1,1,0.0,0.0,-.635*
20,1,0.0,0.0,-.635,-.110267,-.625353,0.0*
1,1,0.0,-.110267,-.625353*
20,1,0.0,-.110267,-.625353,-.217183,-.596705,0.0*
1,1,0.0,-.217183,-.596705*
20,1,0.0,-.217183,-.596705,-.3175,-.549926,0.0*
1,1,0.0,-.3175,-.549926*
20,1,0.0,-.3175,-.549926,-.40817,-.486438,0.0*
1,1,0.0,-.40817,-.486438*
20,1,0.0,-.40817,-.486438,-.486438,-.40817,0.0*
1,1,0.0,-.486438,-.40817*
20,1,0.0,-.486438,-.40817,-.549926,-.3175,0.0*
1,1,0.0,-.549926,-.3175*
20,1,0.0,-.549926,-.3175,-.596705,-.217183,0.0*
1,1,0.0,-.596705,-.217183*
20,1,0.0,-.596705,-.217183,-.625353,-.110267,0.0*
1,1,0.0,-.625353,-.110267*
20,1,0.0,-.625353,-.110267,-.635,0.0,0.0*
1,1,0.0,-.635,0.0*
20,1,0.0,-.635,0.0,-.625353,.110267,0.0*
1,1,0.0,-.625353,.110267*
20,1,0.0,-.625353,.110267,-.596705,.217183,0.0*
1,1,0.0,-.596705,.217183*
20,1,0.0,-.596705,.217183,-.549926,.3175,0.0*
1,1,0.0,-.549926,.3175*
20,1,0.0,-.549926,.3175,-.486438,.40817,0.0*
1,1,0.0,-.486438,.40817*
20,1,0.0,-.486438,.40817,-.40817,.486438,0.0*
1,1,0.0,-.40817,.486438*
20,1,0.0,-.40817,.486438,-.3175,.549926,0.0*
1,1,0.0,-.3175,.549926*
20,1,0.0,-.3175,.549926,-.217183,.596705,0.0*
1,1,0.0,-.217183,.596705*
20,1,0.0,-.217183,.596705,-.110267,.625353,0.0*
1,1,0.0,-.110267,.625353*
20,1,0.0,-.110267,.625353,0.0,.635,0.0*
1,1,0.0,0.0,.635*
20,1,0.0,0.0,.635,.110267,.625353,0.0*
1,1,0.0,.110267,.625353*
20,1,0.0,.110267,.625353,.217183,.596705,0.0*
1,1,0.0,.217183,.596705*
20,1,0.0,.217183,.596705,.3175,.549926,0.0*
1,1,0.0,.3175,.549926*
20,1,0.0,.3175,.549926,.40817,.486438,0.0*
1,1,0.0,.40817,.486438*
20,1,0.0,.40817,.486438,.486438,.40817,0.0*
1,1,0.0,.486438,.40817*
20,1,0.0,.486438,.40817,.549926,.3175,0.0*
1,1,0.0,.549926,.3175*
20,1,0.0,.549926,.3175,.596705,.217183,0.0*
1,1,0.0,.596705,.217183*
20,1,0.0,.596705,.217183,.625353,.110267,0.0*
1,1,0.0,.625353,.110267*
20,1,0.0,.625353,.110267,.635,0.0,0.0*
1,1,0.0,.635,0.0*
1,1,0.0,.3175,0.0*
20,1,0.0,.3175,0.0,-.3175,0.0,0.0*
1,1,0.0,-.3175,0.0*
1,1,0.0,0.0,.3175*
20,1,0.0,0.0,.3175,0.0,-.3175,0.0*
1,1,0.0,0.0,-.3175*
%
%ADD10MACRO10*%
%ADD11C,.1*%
G75*
%LPD*%
G75*
G36*
G01X5748000Y3516800D02*
Y3455600D01*
X5811500D01*
Y-1522000D01*
X5748000D01*
Y-1583200D01*
X6129000D01*
Y-1522000D01*
X6065500D01*
Y3455600D01*
X6129000D01*
Y3516800D01*
X5748000D01*
G37*
G36*
G01X5240000Y-1583200D02*
Y-1522000D01*
X6764000D01*
Y-1583200D01*
X5240000D01*
G37*
G36*
G01Y3455600D02*
Y3516800D01*
X6764000D01*
Y3455600D01*
X5240000D01*
G37*
G54D10*
X-1470270Y4644500D03*
X177000Y1910000D03*
X796000Y1368000D03*
X677000Y904000D03*
X587000Y1157000D03*
X808000Y2261000D03*
X838000Y2500000D03*
X446000Y2535000D03*
X1233000Y1168000D03*
X1389830Y1002830D03*
X1103870Y1695870D03*
X1206000Y2016000D03*
X1664000Y2383000D03*
X1226000Y2970000D03*
X1100000Y3287000D03*
X2012000Y660000D03*
X1869000Y1039000D03*
X1804000Y904000D03*
X1869000Y2218000D03*
X1850500Y2949500D03*
X2109000Y3285000D03*
X2622000Y660000D03*
X2555500Y1111500D03*
X2587330Y1709670D03*
X3137000Y2730000D03*
X2572360Y2710360D03*
X3034000Y3331000D03*
X3243000Y3209000D03*
G54D11*
G01X4527830Y-2127000D02*
Y-2007000D01*
X4561170D01*
X4574500Y-2013000D01*
X4584500Y-2021000D01*
X4592830Y-2033000D01*
X4599500Y-2047000D01*
X4601170Y-2067000D01*
X4599500Y-2087000D01*
X4592830Y-2101000D01*
X4584500Y-2113000D01*
X4574500Y-2121000D01*
X4561170Y-2127000D01*
X4527830D01*
G01X4712830D02*
X4646170D01*
Y-2007000D01*
X4712830D01*
G01X4686170Y-2065000D02*
X4646170D01*
G01X4759500Y-2111000D02*
X4772830Y-2121000D01*
X4787830Y-2127000D01*
X4801170D01*
X4814500Y-2121000D01*
X4824500Y-2111000D01*
X4829500Y-2097000D01*
X4826170Y-2083000D01*
X4817830Y-2071000D01*
X4802830Y-2063000D01*
X4782830Y-2059000D01*
X4771170Y-2051000D01*
X4766170Y-2037000D01*
X4769500Y-2023000D01*
X4777830Y-2013000D01*
X4789500Y-2007000D01*
X4801170D01*
X4812830Y-2011000D01*
X4822830Y-2021000D01*
G01X4889500Y-2007000D02*
X4929500D01*
G01X4909500D02*
Y-2127000D01*
G01X4889500D02*
X4929500D01*
G01X5034500Y-2067000D02*
X5067830D01*
Y-2103000D01*
X5057830Y-2115000D01*
X5046170Y-2123000D01*
X5029500Y-2127000D01*
X5012830Y-2123000D01*
X5001170Y-2115000D01*
X4991170Y-2103000D01*
X4984500Y-2089000D01*
X4981170Y-2073000D01*
Y-2059000D01*
X4984500Y-2047000D01*
X4991170Y-2033000D01*
X5001170Y-2021000D01*
X5011160Y-2013000D01*
X5024500Y-2007000D01*
X5036170D01*
X5049500Y-2011000D01*
X5059500Y-2019000D01*
G01X5101170Y-2127000D02*
Y-2007000D01*
X5177830Y-2127000D01*
Y-2007000D01*
G01X5406170Y-2017000D02*
X5396170Y-2011000D01*
X5384500Y-2007000D01*
X5371170D01*
X5356160Y-2013000D01*
X5344500Y-2023000D01*
X5336170Y-2035000D01*
X5329500Y-2055000D01*
X5327830Y-2073000D01*
X5331170Y-2091000D01*
X5336170Y-2103000D01*
X5346170Y-2115000D01*
X5357830Y-2123000D01*
X5369500Y-2127000D01*
X5381170D01*
X5392830Y-2123000D01*
X5402830Y-2117000D01*
X5411170Y-2109000D01*
G01X5451170Y-2127000D02*
Y-2007000D01*
X5492830D01*
X5506170Y-2013000D01*
X5514500Y-2021000D01*
X5517830Y-2037000D01*
X5514500Y-2053000D01*
X5504500Y-2063000D01*
X5492830Y-2069000D01*
X5451170D01*
G01X5492830D02*
X5517830Y-2127000D01*
G01X5599500D02*
X5586160Y-2125000D01*
X5574500Y-2117000D01*
X5564500Y-2105000D01*
X5557830Y-2091000D01*
X5554500Y-2075000D01*
Y-2059000D01*
X5557830Y-2043000D01*
X5564500Y-2029000D01*
X5574500Y-2017000D01*
X5586160Y-2009000D01*
X5599500Y-2007000D01*
X5612830Y-2009000D01*
X5624500Y-2017000D01*
X5634500Y-2029000D01*
X5641170Y-2043000D01*
X5644500Y-2059000D01*
Y-2075000D01*
X5641170Y-2091000D01*
X5634500Y-2105000D01*
X5624500Y-2117000D01*
X5612830Y-2125000D01*
X5599500Y-2127000D01*
G01X5679500Y-2111000D02*
X5692830Y-2121000D01*
X5707830Y-2127000D01*
X5721170D01*
X5734500Y-2121000D01*
X5744500Y-2111000D01*
X5749500Y-2097000D01*
X5746170Y-2083000D01*
X5737830Y-2071000D01*
X5722830Y-2063000D01*
X5702830Y-2059000D01*
X5691170Y-2051000D01*
X5686170Y-2037000D01*
X5689500Y-2023000D01*
X5697830Y-2013000D01*
X5709500Y-2007000D01*
X5721170D01*
X5732830Y-2011000D01*
X5742830Y-2021000D01*
G01X5794500Y-2111000D02*
X5807830Y-2121000D01*
X5822830Y-2127000D01*
X5836170D01*
X5849500Y-2121000D01*
X5859500Y-2111000D01*
X5864500Y-2097000D01*
X5861170Y-2083000D01*
X5852830Y-2071000D01*
X5837830Y-2063000D01*
X5817830Y-2059000D01*
X5806170Y-2051000D01*
X5801170Y-2037000D01*
X5804500Y-2023000D01*
X5812830Y-2013000D01*
X5824500Y-2007000D01*
X5836170D01*
X5847830Y-2011000D01*
X5857830Y-2021000D01*
G01X6024500Y-2111000D02*
X6037830Y-2121000D01*
X6052830Y-2127000D01*
X6066170D01*
X6079500Y-2121000D01*
X6089500Y-2111000D01*
X6094500Y-2097000D01*
X6091170Y-2083000D01*
X6082830Y-2071000D01*
X6067830Y-2063000D01*
X6047830Y-2059000D01*
X6036170Y-2051000D01*
X6031170Y-2037000D01*
X6034500Y-2023000D01*
X6042830Y-2013000D01*
X6054500Y-2007000D01*
X6066170D01*
X6077830Y-2011000D01*
X6087830Y-2021000D01*
G01X6207830Y-2127000D02*
X6141170D01*
Y-2007000D01*
X6207830D01*
G01X6181170Y-2065000D02*
X6141170D01*
G01X6326170Y-2017000D02*
X6316170Y-2011000D01*
X6304500Y-2007000D01*
X6291170D01*
X6276160Y-2013000D01*
X6264500Y-2023000D01*
X6256170Y-2035000D01*
X6249500Y-2055000D01*
X6247830Y-2073000D01*
X6251170Y-2091000D01*
X6256170Y-2103000D01*
X6266170Y-2115000D01*
X6277830Y-2123000D01*
X6289500Y-2127000D01*
X6301170D01*
X6312830Y-2123000D01*
X6322830Y-2117000D01*
X6331170Y-2109000D01*
G01X6404500Y-2007000D02*
Y-2127000D01*
G01X6366170Y-2007000D02*
X6442830D01*
G01X6499500D02*
X6539500D01*
G01X6519500D02*
Y-2127000D01*
G01X6499500D02*
X6539500D01*
G01X6634500D02*
X6621160Y-2125000D01*
X6609500Y-2117000D01*
X6599500Y-2105000D01*
X6592830Y-2091000D01*
X6589500Y-2075000D01*
Y-2059000D01*
X6592830Y-2043000D01*
X6599500Y-2029000D01*
X6609500Y-2017000D01*
X6621160Y-2009000D01*
X6634500Y-2007000D01*
X6647830Y-2009000D01*
X6659500Y-2017000D01*
X6669500Y-2029000D01*
X6676170Y-2043000D01*
X6679500Y-2059000D01*
Y-2075000D01*
X6676170Y-2091000D01*
X6669500Y-2105000D01*
X6659500Y-2117000D01*
X6647830Y-2125000D01*
X6634500Y-2127000D01*
G01X6711170D02*
Y-2007000D01*
X6787830Y-2127000D01*
Y-2007000D01*
G01X7016170Y-2017000D02*
X7006170Y-2011000D01*
X6994500Y-2007000D01*
X6981170D01*
X6966160Y-2013000D01*
X6954500Y-2023000D01*
X6946170Y-2035000D01*
X6939500Y-2055000D01*
X6937830Y-2073000D01*
X6941170Y-2091000D01*
X6946170Y-2103000D01*
X6956170Y-2115000D01*
X6967830Y-2123000D01*
X6979500Y-2127000D01*
X6991170D01*
X7002830Y-2123000D01*
X7012830Y-2117000D01*
X7021170Y-2109000D01*
G01X7059500Y-2127000D02*
Y-2007000D01*
G01X7129500D02*
Y-2127000D01*
G01Y-2067000D02*
X7059500D01*
G01X7167830Y-2127000D02*
X7209500Y-2007000D01*
X7251170Y-2127000D01*
G01X7236170Y-2085000D02*
X7182830D01*
G01X7291170Y-2127000D02*
Y-2007000D01*
X7332830D01*
X7346170Y-2013000D01*
X7354500Y-2021000D01*
X7357830Y-2037000D01*
X7354500Y-2053000D01*
X7344500Y-2063000D01*
X7332830Y-2069000D01*
X7291170D01*
G01X7332830D02*
X7357830Y-2127000D01*
G01X7439500Y-2007000D02*
Y-2127000D01*
G01X7401170Y-2007000D02*
X7477830D01*
G01X4457000Y-2167000D02*
X4557000D01*
G01X4572000D02*
X4672000D01*
G01X4687000D02*
X4787000D01*
G01X4802000D02*
X4902000D01*
G01X4917000D02*
X5017000D01*
G01X5032000D02*
X5132000D01*
G01X5147000D02*
X5247000D01*
G01X5262000D02*
X5362000D01*
G01X5377000D02*
X5477000D01*
G01X5492000D02*
X5592000D01*
G01X5607000D02*
X5707000D01*
G01X5722000D02*
X5822000D01*
G01X5837000D02*
X5937000D01*
G01X5952000D02*
X6052000D01*
G01X6067000D02*
X6167000D01*
G01X6182000D02*
X6282000D01*
G01X6297000D02*
X6397000D01*
G01X6412000D02*
X6512000D01*
G01X6527000D02*
X6627000D01*
G01X6642000D02*
X6742000D01*
G01X6757000D02*
X6857000D01*
G01X6872000D02*
X6972000D01*
G01X6987000D02*
X7087000D01*
G01X7102000D02*
X7202000D01*
G01X7217000D02*
X7317000D01*
G01X7332000D02*
X7432000D01*
G01X7447000D02*
X7547000D01*
G01X4794500Y-2247000D02*
Y-2367000D01*
G01X4756170Y-2247000D02*
X4832830D01*
G01X4909500Y-2367000D02*
X4896160Y-2365000D01*
X4884500Y-2357000D01*
X4874500Y-2345000D01*
X4867830Y-2331000D01*
X4864500Y-2315000D01*
Y-2299000D01*
X4867830Y-2283000D01*
X4874500Y-2269000D01*
X4884500Y-2257000D01*
X4896160Y-2249000D01*
X4909500Y-2247000D01*
X4922830Y-2249000D01*
X4934500Y-2257000D01*
X4944500Y-2269000D01*
X4951170Y-2283000D01*
X4954500Y-2299000D01*
Y-2315000D01*
X4951170Y-2331000D01*
X4944500Y-2345000D01*
X4934500Y-2357000D01*
X4922830Y-2365000D01*
X4909500Y-2367000D01*
G01X5024500Y-2247000D02*
Y-2367000D01*
G01X4986170Y-2247000D02*
X5062830D01*
G01X5097830Y-2367000D02*
X5139500Y-2247000D01*
X5181170Y-2367000D01*
G01X5166170Y-2325000D02*
X5112830D01*
G01X5221170Y-2247000D02*
Y-2367000D01*
X5287830D01*
G01X5484500Y-2247000D02*
Y-2367000D01*
G01X5446170Y-2247000D02*
X5522830D01*
G01X5564500Y-2367000D02*
Y-2247000D01*
G01X5634500D02*
Y-2367000D01*
G01Y-2307000D02*
X5564500D01*
G01X5694500Y-2247000D02*
X5734500D01*
G01X5714500D02*
Y-2367000D01*
G01X5694500D02*
X5734500D01*
G01X5866170Y-2257000D02*
X5856170Y-2251000D01*
X5844500Y-2247000D01*
X5831170D01*
X5816160Y-2253000D01*
X5804500Y-2263000D01*
X5796170Y-2275000D01*
X5789500Y-2295000D01*
X5787830Y-2313000D01*
X5791170Y-2331000D01*
X5796170Y-2343000D01*
X5806170Y-2355000D01*
X5817830Y-2363000D01*
X5829500Y-2367000D01*
X5841170D01*
X5852830Y-2363000D01*
X5862830Y-2357000D01*
X5871170Y-2349000D01*
G01X5907830Y-2367000D02*
Y-2247000D01*
G01X5971170D02*
X5907830Y-2321000D01*
G01X5981170Y-2367000D02*
X5936170Y-2287000D01*
G01X6021170Y-2367000D02*
Y-2247000D01*
X6097830Y-2367000D01*
Y-2247000D01*
G01X6207830Y-2367000D02*
X6141170D01*
Y-2247000D01*
X6207830D01*
G01X6181170Y-2305000D02*
X6141170D01*
G01X6254500Y-2351000D02*
X6267830Y-2361000D01*
X6282830Y-2367000D01*
X6296170D01*
X6309500Y-2361000D01*
X6319500Y-2351000D01*
X6324500Y-2337000D01*
X6321170Y-2323000D01*
X6312830Y-2311000D01*
X6297830Y-2303000D01*
X6277830Y-2299000D01*
X6266170Y-2291000D01*
X6261170Y-2277000D01*
X6264500Y-2263000D01*
X6272830Y-2253000D01*
X6284500Y-2247000D01*
X6296170D01*
X6307830Y-2251000D01*
X6317830Y-2261000D01*
G01X6369500Y-2351000D02*
X6382830Y-2361000D01*
X6397830Y-2367000D01*
X6411170D01*
X6424500Y-2361000D01*
X6434500Y-2351000D01*
X6439500Y-2337000D01*
X6436170Y-2323000D01*
X6427830Y-2311000D01*
X6412830Y-2303000D01*
X6392830Y-2299000D01*
X6381170Y-2291000D01*
X6376170Y-2277000D01*
X6379500Y-2263000D01*
X6387830Y-2253000D01*
X6399500Y-2247000D01*
X6411170D01*
X6422830Y-2251000D01*
X6432830Y-2261000D01*
G01X6634500Y-2367000D02*
Y-2247000D01*
X6614500Y-2271000D01*
G01Y-2367000D02*
X6654500D01*
G01X6749500Y-2371000D02*
X6746170Y-2369000D01*
Y-2365000D01*
X6749500Y-2363000D01*
X6752830Y-2365000D01*
Y-2369000D01*
X6749500Y-2371000D01*
G01X6827830Y-2349000D02*
X6837830Y-2359000D01*
X6849500Y-2365000D01*
X6864500Y-2367000D01*
X6879500Y-2363000D01*
X6891170Y-2355000D01*
X6899500Y-2341000D01*
X6901170Y-2325000D01*
X6897830Y-2309000D01*
X6889500Y-2299000D01*
X6877830Y-2291000D01*
X6866170Y-2289000D01*
X6854500Y-2291000D01*
X6839500Y-2299000D01*
X6844500Y-2247000D01*
X6889500D01*
G01X7051170Y-2367000D02*
Y-2247000D01*
X7094500Y-2347000D01*
X7137830Y-2247000D01*
Y-2367000D01*
G01X7166170D02*
Y-2247000D01*
X7209500Y-2347000D01*
X7252830Y-2247000D01*
Y-2367000D01*
G01X5938500Y3686800D02*
X5818500D01*
X5842500Y3666800D01*
G01X5938500D02*
Y3706800D01*
G01X5898500Y3780130D02*
Y3823470D01*
G01X5838500Y3885130D02*
X5826500Y3895130D01*
X5820500Y3906800D01*
X5818500Y3920130D01*
X5822500Y3936800D01*
X5832500Y3948470D01*
X5844500Y3951800D01*
X5856500Y3950130D01*
X5866500Y3943470D01*
X5886500Y3910130D01*
X5900500Y3895130D01*
X5920500Y3885130D01*
X5938500Y3881800D01*
Y3951800D01*
G01X6895670Y-1562000D02*
Y-1682000D01*
X6962330D01*
G01X7012330Y-1582000D02*
X7022330Y-1570000D01*
X7034000Y-1564000D01*
X7047330Y-1562000D01*
X7064000Y-1566000D01*
X7075670Y-1576000D01*
X7079000Y-1588000D01*
X7077330Y-1600000D01*
X7070670Y-1610000D01*
X7037330Y-1630000D01*
X7022330Y-1644000D01*
X7012330Y-1664000D01*
X7009000Y-1682000D01*
X7079000D01*
G01X7159000Y-1686000D02*
X7155670Y-1684000D01*
Y-1680000D01*
X7159000Y-1678000D01*
X7162330Y-1680000D01*
Y-1684000D01*
X7159000Y-1686000D01*
G01Y-1632000D02*
X7155670Y-1630000D01*
Y-1626000D01*
X7159000Y-1624000D01*
X7162330Y-1626000D01*
Y-1630000D01*
X7159000Y-1632000D01*
G01X7402330Y-1618000D02*
X7409000Y-1612000D01*
X7414000Y-1602000D01*
X7417330Y-1588000D01*
X7414000Y-1576000D01*
X7407330Y-1568000D01*
X7395670Y-1562000D01*
X7350670D01*
Y-1682000D01*
X7405670D01*
X7417330Y-1674000D01*
X7424000Y-1662000D01*
X7427330Y-1648000D01*
X7424000Y-1634000D01*
X7414000Y-1622000D01*
X7402330Y-1618000D01*
X7350670D01*
G01X7504000Y-1682000D02*
X7490660Y-1680000D01*
X7479000Y-1672000D01*
X7469000Y-1660000D01*
X7462330Y-1646000D01*
X7459000Y-1630000D01*
Y-1614000D01*
X7462330Y-1598000D01*
X7469000Y-1584000D01*
X7479000Y-1572000D01*
X7490660Y-1564000D01*
X7504000Y-1562000D01*
X7517330Y-1564000D01*
X7529000Y-1572000D01*
X7539000Y-1584000D01*
X7545670Y-1598000D01*
X7549000Y-1614000D01*
Y-1630000D01*
X7545670Y-1646000D01*
X7539000Y-1660000D01*
X7529000Y-1672000D01*
X7517330Y-1680000D01*
X7504000Y-1682000D01*
G01X7619000Y-1562000D02*
Y-1682000D01*
G01X7580670Y-1562000D02*
X7657330D01*
G01X7734000D02*
Y-1682000D01*
G01X7695670Y-1562000D02*
X7772330D01*
G01X7849000Y-1682000D02*
X7835660Y-1680000D01*
X7824000Y-1672000D01*
X7814000Y-1660000D01*
X7807330Y-1646000D01*
X7804000Y-1630000D01*
Y-1614000D01*
X7807330Y-1598000D01*
X7814000Y-1584000D01*
X7824000Y-1572000D01*
X7835660Y-1564000D01*
X7849000Y-1562000D01*
X7862330Y-1564000D01*
X7874000Y-1572000D01*
X7884000Y-1584000D01*
X7890670Y-1598000D01*
X7894000Y-1614000D01*
Y-1630000D01*
X7890670Y-1646000D01*
X7884000Y-1660000D01*
X7874000Y-1672000D01*
X7862330Y-1680000D01*
X7849000Y-1682000D01*
G01X7920670D02*
Y-1562000D01*
X7964000Y-1662000D01*
X8007330Y-1562000D01*
Y-1682000D01*
G01X8230670Y-1572000D02*
X8220670Y-1566000D01*
X8209000Y-1562000D01*
X8195670D01*
X8180660Y-1568000D01*
X8169000Y-1578000D01*
X8160670Y-1590000D01*
X8154000Y-1610000D01*
X8152330Y-1628000D01*
X8155670Y-1646000D01*
X8160670Y-1658000D01*
X8170670Y-1670000D01*
X8182330Y-1678000D01*
X8194000Y-1682000D01*
X8205670D01*
X8217330Y-1678000D01*
X8227330Y-1672000D01*
X8235670Y-1664000D01*
G01X8309000Y-1682000D02*
X8295660Y-1680000D01*
X8284000Y-1672000D01*
X8274000Y-1660000D01*
X8267330Y-1646000D01*
X8264000Y-1630000D01*
Y-1614000D01*
X8267330Y-1598000D01*
X8274000Y-1584000D01*
X8284000Y-1572000D01*
X8295660Y-1564000D01*
X8309000Y-1562000D01*
X8322330Y-1564000D01*
X8334000Y-1572000D01*
X8344000Y-1584000D01*
X8350670Y-1598000D01*
X8354000Y-1614000D01*
Y-1630000D01*
X8350670Y-1646000D01*
X8344000Y-1660000D01*
X8334000Y-1672000D01*
X8322330Y-1680000D01*
X8309000Y-1682000D01*
G01X8385670D02*
Y-1562000D01*
X8462330Y-1682000D01*
Y-1562000D01*
G01X8502330Y-1682000D02*
Y-1562000D01*
X8535670D01*
X8549000Y-1568000D01*
X8559000Y-1576000D01*
X8567330Y-1588000D01*
X8574000Y-1602000D01*
X8575670Y-1622000D01*
X8574000Y-1642000D01*
X8567330Y-1656000D01*
X8559000Y-1668000D01*
X8549000Y-1676000D01*
X8535670Y-1682000D01*
X8502330D01*
G01X8617330Y-1562000D02*
Y-1648000D01*
X8624000Y-1666000D01*
X8637330Y-1678000D01*
X8654000Y-1682000D01*
X8670670Y-1678000D01*
X8684000Y-1666000D01*
X8690670Y-1648000D01*
Y-1562000D01*
G01X8805670Y-1572000D02*
X8795670Y-1566000D01*
X8784000Y-1562000D01*
X8770670D01*
X8755660Y-1568000D01*
X8744000Y-1578000D01*
X8735670Y-1590000D01*
X8729000Y-1610000D01*
X8727330Y-1628000D01*
X8730670Y-1646000D01*
X8735670Y-1658000D01*
X8745670Y-1670000D01*
X8757330Y-1678000D01*
X8769000Y-1682000D01*
X8780670D01*
X8792330Y-1678000D01*
X8802330Y-1672000D01*
X8810670Y-1664000D01*
G01X8884000Y-1562000D02*
Y-1682000D01*
G01X8845670Y-1562000D02*
X8922330D01*
G01X8999000Y-1682000D02*
X8985660Y-1680000D01*
X8974000Y-1672000D01*
X8964000Y-1660000D01*
X8957330Y-1646000D01*
X8954000Y-1630000D01*
Y-1614000D01*
X8957330Y-1598000D01*
X8964000Y-1584000D01*
X8974000Y-1572000D01*
X8985660Y-1564000D01*
X8999000Y-1562000D01*
X9012330Y-1564000D01*
X9024000Y-1572000D01*
X9034000Y-1584000D01*
X9040670Y-1598000D01*
X9044000Y-1614000D01*
Y-1630000D01*
X9040670Y-1646000D01*
X9034000Y-1660000D01*
X9024000Y-1672000D01*
X9012330Y-1680000D01*
X8999000Y-1682000D01*
G01X9080670D02*
Y-1562000D01*
X9122330D01*
X9135670Y-1568000D01*
X9144000Y-1576000D01*
X9147330Y-1592000D01*
X9144000Y-1608000D01*
X9134000Y-1618000D01*
X9122330Y-1624000D01*
X9080670D01*
G01X9122330D02*
X9147330Y-1682000D01*
G01X9322330Y-1642000D02*
X9365670D01*
G01X9610670Y-1572000D02*
X9600670Y-1566000D01*
X9589000Y-1562000D01*
X9575670D01*
X9560660Y-1568000D01*
X9549000Y-1578000D01*
X9540670Y-1590000D01*
X9534000Y-1610000D01*
X9532330Y-1628000D01*
X9535670Y-1646000D01*
X9540670Y-1658000D01*
X9550670Y-1670000D01*
X9562330Y-1678000D01*
X9574000Y-1682000D01*
X9585670D01*
X9597330Y-1678000D01*
X9607330Y-1672000D01*
X9615670Y-1664000D01*
G01X9689000Y-1682000D02*
X9675660Y-1680000D01*
X9664000Y-1672000D01*
X9654000Y-1660000D01*
X9647330Y-1646000D01*
X9644000Y-1630000D01*
Y-1614000D01*
X9647330Y-1598000D01*
X9654000Y-1584000D01*
X9664000Y-1572000D01*
X9675660Y-1564000D01*
X9689000Y-1562000D01*
X9702330Y-1564000D01*
X9714000Y-1572000D01*
X9724000Y-1584000D01*
X9730670Y-1598000D01*
X9734000Y-1614000D01*
Y-1630000D01*
X9730670Y-1646000D01*
X9724000Y-1660000D01*
X9714000Y-1672000D01*
X9702330Y-1680000D01*
X9689000Y-1682000D01*
G01X9770670D02*
Y-1562000D01*
X9810670D01*
X9824000Y-1568000D01*
X9834000Y-1582000D01*
X9837330Y-1598000D01*
X9834000Y-1614000D01*
X9825670Y-1626000D01*
X9810670Y-1632000D01*
X9770670D01*
G01X9885670Y-1682000D02*
Y-1562000D01*
X9925670D01*
X9939000Y-1568000D01*
X9949000Y-1582000D01*
X9952330Y-1598000D01*
X9949000Y-1614000D01*
X9940670Y-1626000D01*
X9925670Y-1632000D01*
X9885670D01*
G01X10067330Y-1682000D02*
X10000670D01*
Y-1562000D01*
X10067330D01*
G01X10040670Y-1620000D02*
X10000670D01*
G01X10115670Y-1682000D02*
Y-1562000D01*
X10157330D01*
X10170670Y-1568000D01*
X10179000Y-1576000D01*
X10182330Y-1592000D01*
X10179000Y-1608000D01*
X10169000Y-1618000D01*
X10157330Y-1624000D01*
X10115670D01*
G01X10157330D02*
X10182330Y-1682000D01*
G01X10379000Y-1562000D02*
X10365660Y-1566000D01*
X10355670Y-1576000D01*
X10349000Y-1588000D01*
X10344000Y-1604000D01*
X10342330Y-1622000D01*
X10344000Y-1640000D01*
X10349000Y-1656000D01*
X10355670Y-1668000D01*
X10365660Y-1678000D01*
X10379000Y-1682000D01*
X10392330Y-1678000D01*
X10402330Y-1668000D01*
X10409000Y-1656000D01*
X10414000Y-1640000D01*
X10415670Y-1622000D01*
X10414000Y-1604000D01*
X10409000Y-1588000D01*
X10402330Y-1576000D01*
X10392330Y-1566000D01*
X10379000Y-1562000D01*
G01X10494000Y-1686000D02*
X10490670Y-1684000D01*
Y-1680000D01*
X10494000Y-1678000D01*
X10497330Y-1680000D01*
Y-1684000D01*
X10494000Y-1686000D01*
G01X10609000Y-1562000D02*
X10595660Y-1566000D01*
X10585670Y-1576000D01*
X10579000Y-1588000D01*
X10574000Y-1604000D01*
X10572330Y-1622000D01*
X10574000Y-1640000D01*
X10579000Y-1656000D01*
X10585670Y-1668000D01*
X10595660Y-1678000D01*
X10609000Y-1682000D01*
X10622330Y-1678000D01*
X10632330Y-1668000D01*
X10639000Y-1656000D01*
X10644000Y-1640000D01*
X10645670Y-1622000D01*
X10644000Y-1604000D01*
X10639000Y-1588000D01*
X10632330Y-1576000D01*
X10622330Y-1566000D01*
X10609000Y-1562000D01*
G01X10724000Y-1682000D02*
Y-1562000D01*
X10704000Y-1586000D01*
G01Y-1682000D02*
X10744000D01*
G01X10839000D02*
X10850670Y-1680000D01*
X10864000Y-1674000D01*
X10872330Y-1664000D01*
X10875670Y-1650000D01*
X10872330Y-1636000D01*
X10862330Y-1624000D01*
X10847330Y-1618000D01*
X10830670D01*
X10820670Y-1614000D01*
X10812330Y-1604000D01*
X10809000Y-1590000D01*
X10814000Y-1576000D01*
X10825660Y-1566000D01*
X10839000Y-1562000D01*
X10852330Y-1566000D01*
X10864000Y-1576000D01*
X10869000Y-1590000D01*
X10865670Y-1604000D01*
X10857330Y-1614000D01*
X10847330Y-1618000D01*
X10830670D01*
X10815670Y-1624000D01*
X10805670Y-1636000D01*
X10802330Y-1650000D01*
X10805670Y-1664000D01*
X10814000Y-1674000D01*
X10827330Y-1680000D01*
X10839000Y-1682000D01*
G01X11025670D02*
Y-1562000D01*
X11069000Y-1662000D01*
X11112330Y-1562000D01*
Y-1682000D01*
G01X11140670D02*
Y-1562000D01*
X11184000Y-1662000D01*
X11227330Y-1562000D01*
Y-1682000D01*
G01X7122330Y-1846000D02*
X7195670Y-1758000D01*
G01X7159000Y-1742000D02*
Y-1862000D01*
G01X7195670Y-1846000D02*
X7122330Y-1758000D01*
G01X7109000Y-1802000D02*
X7209000D01*
G01X7469000Y-1826000D02*
X7482330Y-1836000D01*
X7497330Y-1842000D01*
X7510670D01*
X7524000Y-1836000D01*
X7534000Y-1826000D01*
X7539000Y-1812000D01*
X7535670Y-1798000D01*
X7527330Y-1786000D01*
X7512330Y-1778000D01*
X7492330Y-1774000D01*
X7480670Y-1766000D01*
X7475670Y-1752000D01*
X7479000Y-1738000D01*
X7487330Y-1728000D01*
X7499000Y-1722000D01*
X7510670D01*
X7522330Y-1726000D01*
X7532330Y-1736000D01*
G01X7582330Y-1722000D02*
Y-1808000D01*
X7589000Y-1826000D01*
X7602330Y-1838000D01*
X7619000Y-1842000D01*
X7635670Y-1838000D01*
X7649000Y-1826000D01*
X7655670Y-1808000D01*
Y-1722000D01*
G01X7700670Y-1842000D02*
Y-1722000D01*
X7742330D01*
X7755670Y-1728000D01*
X7764000Y-1736000D01*
X7767330Y-1752000D01*
X7764000Y-1768000D01*
X7754000Y-1778000D01*
X7742330Y-1784000D01*
X7700670D01*
G01X7742330D02*
X7767330Y-1842000D01*
G01X7817330D02*
Y-1722000D01*
X7880670D01*
G01X7857330Y-1780000D02*
X7817330D01*
G01X7922330Y-1842000D02*
X7964000Y-1722000D01*
X8005670Y-1842000D01*
G01X7990670Y-1800000D02*
X7937330D01*
G01X8115670Y-1732000D02*
X8105670Y-1726000D01*
X8094000Y-1722000D01*
X8080670D01*
X8065660Y-1728000D01*
X8054000Y-1738000D01*
X8045670Y-1750000D01*
X8039000Y-1770000D01*
X8037330Y-1788000D01*
X8040670Y-1806000D01*
X8045670Y-1818000D01*
X8055670Y-1830000D01*
X8067330Y-1838000D01*
X8079000Y-1842000D01*
X8090670D01*
X8102330Y-1838000D01*
X8112330Y-1832000D01*
X8120670Y-1824000D01*
G01X8227330Y-1842000D02*
X8160670D01*
Y-1722000D01*
X8227330D01*
G01X8200670Y-1780000D02*
X8160670D01*
G01X8402330Y-1802000D02*
X8445670D01*
G01X8612330Y-1842000D02*
X8654000Y-1722000D01*
X8695670Y-1842000D01*
G01X8680670Y-1800000D02*
X8627330D01*
G01X8749000Y-1722000D02*
X8789000D01*
G01X8769000D02*
Y-1842000D01*
G01X8749000D02*
X8789000D01*
G01X8850670D02*
Y-1722000D01*
X8892330D01*
X8905670Y-1728000D01*
X8914000Y-1736000D01*
X8917330Y-1752000D01*
X8914000Y-1768000D01*
X8904000Y-1778000D01*
X8892330Y-1784000D01*
X8850670D01*
G01X8892330D02*
X8917330Y-1842000D01*
G01X9114000Y-1722000D02*
X9100660Y-1726000D01*
X9090670Y-1736000D01*
X9084000Y-1748000D01*
X9079000Y-1764000D01*
X9077330Y-1782000D01*
X9079000Y-1800000D01*
X9084000Y-1816000D01*
X9090670Y-1828000D01*
X9100660Y-1838000D01*
X9114000Y-1842000D01*
X9127330Y-1838000D01*
X9137330Y-1828000D01*
X9144000Y-1816000D01*
X9149000Y-1800000D01*
X9150670Y-1782000D01*
X9149000Y-1764000D01*
X9144000Y-1748000D01*
X9137330Y-1736000D01*
X9127330Y-1726000D01*
X9114000Y-1722000D01*
G01X9300670Y-1842000D02*
Y-1722000D01*
X9344000Y-1822000D01*
X9387330Y-1722000D01*
Y-1842000D01*
G01X9415670D02*
Y-1722000D01*
X9459000Y-1822000D01*
X9502330Y-1722000D01*
Y-1842000D01*
G01X7122330Y962800D02*
X7195670Y1050800D01*
G01X7159000Y1066800D02*
Y946800D01*
G01X7195670Y962800D02*
X7122330Y1050800D01*
G01X7109000Y1006800D02*
X7209000D01*
G01X7467330Y966800D02*
Y1086800D01*
X7500670D01*
X7514000Y1080800D01*
X7524000Y1072800D01*
X7532330Y1060800D01*
X7539000Y1046800D01*
X7540670Y1026800D01*
X7539000Y1006800D01*
X7532330Y992800D01*
X7524000Y980800D01*
X7514000Y972800D01*
X7500670Y966800D01*
X7467330D01*
G01X7599000Y1086800D02*
X7639000D01*
G01X7619000D02*
Y966800D01*
G01X7599000D02*
X7639000D01*
G01X7767330D02*
X7700670D01*
Y1086800D01*
X7767330D01*
G01X7740670Y1028800D02*
X7700670D01*
G01X7815670Y1086800D02*
Y966800D01*
X7882330D01*
G01X7997330D02*
X7930670D01*
Y1086800D01*
X7997330D01*
G01X7970670Y1028800D02*
X7930670D01*
G01X8115670Y1076800D02*
X8105670Y1082800D01*
X8094000Y1086800D01*
X8080670D01*
X8065660Y1080800D01*
X8054000Y1070800D01*
X8045670Y1058800D01*
X8039000Y1038800D01*
X8037330Y1020800D01*
X8040670Y1002800D01*
X8045670Y990800D01*
X8055670Y978800D01*
X8067330Y970800D01*
X8079000Y966800D01*
X8090670D01*
X8102330Y970800D01*
X8112330Y976800D01*
X8120670Y984800D01*
G01X8194000Y1086800D02*
Y966800D01*
G01X8155670Y1086800D02*
X8232330D01*
G01X8275670Y966800D02*
Y1086800D01*
X8317330D01*
X8330670Y1080800D01*
X8339000Y1072800D01*
X8342330Y1056800D01*
X8339000Y1040800D01*
X8329000Y1030800D01*
X8317330Y1024800D01*
X8275670D01*
G01X8317330D02*
X8342330Y966800D01*
G01X8404000Y1086800D02*
X8444000D01*
G01X8424000D02*
Y966800D01*
G01X8404000D02*
X8444000D01*
G01X8575670Y1076800D02*
X8565670Y1082800D01*
X8554000Y1086800D01*
X8540670D01*
X8525660Y1080800D01*
X8514000Y1070800D01*
X8505670Y1058800D01*
X8499000Y1038800D01*
X8497330Y1020800D01*
X8500670Y1002800D01*
X8505670Y990800D01*
X8515670Y978800D01*
X8527330Y970800D01*
X8539000Y966800D01*
X8550670D01*
X8562330Y970800D01*
X8572330Y976800D01*
X8580670Y984800D01*
G01X8747330Y1006800D02*
X8790670D01*
G01X8967330Y966800D02*
Y1086800D01*
X9030670D01*
G01X9007330Y1028800D02*
X8967330D01*
G01X9080670Y966800D02*
Y1086800D01*
X9122330D01*
X9135670Y1080800D01*
X9144000Y1072800D01*
X9147330Y1056800D01*
X9144000Y1040800D01*
X9134000Y1030800D01*
X9122330Y1024800D01*
X9080670D01*
G01X9122330D02*
X9147330Y966800D01*
G01X9207330Y1006800D02*
X9250670D01*
G01X9364000Y966800D02*
Y1086800D01*
X9302330Y1000800D01*
X9385670D01*
G01X9574000Y966800D02*
Y1086800D01*
X9554000Y1062800D01*
G01Y966800D02*
X9594000D01*
G01X9689000Y962800D02*
X9685670Y964800D01*
Y968800D01*
X9689000Y970800D01*
X9692330Y968800D01*
Y964800D01*
X9689000Y962800D01*
G01X9824000Y966800D02*
Y1086800D01*
X9762330Y1000800D01*
X9845670D01*
G01X9887330Y1016800D02*
X9899000Y1030800D01*
X9909000Y1038800D01*
X9922330Y1042800D01*
X9934000Y1038800D01*
X9942330Y1030800D01*
X9949000Y1018800D01*
X9950670Y1004800D01*
X9949000Y992800D01*
X9942330Y980800D01*
X9932330Y970800D01*
X9920670Y966800D01*
X9907330Y970800D01*
X9895670Y982800D01*
X9889000Y1000800D01*
X9887330Y1020800D01*
X9890670Y1046800D01*
X9895670Y1060800D01*
X9904000Y1074800D01*
X9915670Y1084800D01*
X9927330Y1086800D01*
X9939000Y1082800D01*
X9947330Y1072800D01*
G01X10054000Y966800D02*
Y1086800D01*
X9992330Y1000800D01*
X10075670D01*
G01X10220670Y966800D02*
Y1086800D01*
X10264000Y986800D01*
X10307330Y1086800D01*
Y966800D01*
G01X10335670D02*
Y1086800D01*
X10379000Y986800D01*
X10422330Y1086800D01*
Y966800D01*
G01X7122330Y3552800D02*
X7195670Y3640800D01*
G01X7159000Y3656800D02*
Y3536800D01*
G01X7195670Y3552800D02*
X7122330Y3640800D01*
G01X7109000Y3596800D02*
X7209000D01*
G01X7469000Y3572800D02*
X7482330Y3562800D01*
X7497330Y3556800D01*
X7510670D01*
X7524000Y3562800D01*
X7534000Y3572800D01*
X7539000Y3586800D01*
X7535670Y3600800D01*
X7527330Y3612800D01*
X7512330Y3620800D01*
X7492330Y3624800D01*
X7480670Y3632800D01*
X7475670Y3646800D01*
X7479000Y3660800D01*
X7487330Y3670800D01*
X7499000Y3676800D01*
X7510670D01*
X7522330Y3672800D01*
X7532330Y3662800D01*
G01X7582330Y3676800D02*
Y3590800D01*
X7589000Y3572800D01*
X7602330Y3560800D01*
X7619000Y3556800D01*
X7635670Y3560800D01*
X7649000Y3572800D01*
X7655670Y3590800D01*
Y3676800D01*
G01X7700670Y3556800D02*
Y3676800D01*
X7742330D01*
X7755670Y3670800D01*
X7764000Y3662800D01*
X7767330Y3646800D01*
X7764000Y3630800D01*
X7754000Y3620800D01*
X7742330Y3614800D01*
X7700670D01*
G01X7742330D02*
X7767330Y3556800D01*
G01X7817330D02*
Y3676800D01*
X7880670D01*
G01X7857330Y3618800D02*
X7817330D01*
G01X7922330Y3556800D02*
X7964000Y3676800D01*
X8005670Y3556800D01*
G01X7990670Y3598800D02*
X7937330D01*
G01X8115670Y3666800D02*
X8105670Y3672800D01*
X8094000Y3676800D01*
X8080670D01*
X8065660Y3670800D01*
X8054000Y3660800D01*
X8045670Y3648800D01*
X8039000Y3628800D01*
X8037330Y3610800D01*
X8040670Y3592800D01*
X8045670Y3580800D01*
X8055670Y3568800D01*
X8067330Y3560800D01*
X8079000Y3556800D01*
X8090670D01*
X8102330Y3560800D01*
X8112330Y3566800D01*
X8120670Y3574800D01*
G01X8227330Y3556800D02*
X8160670D01*
Y3676800D01*
X8227330D01*
G01X8200670Y3618800D02*
X8160670D01*
G01X8402330Y3596800D02*
X8445670D01*
G01X8612330Y3556800D02*
X8654000Y3676800D01*
X8695670Y3556800D01*
G01X8680670Y3598800D02*
X8627330D01*
G01X8749000Y3676800D02*
X8789000D01*
G01X8769000D02*
Y3556800D01*
G01X8749000D02*
X8789000D01*
G01X8850670D02*
Y3676800D01*
X8892330D01*
X8905670Y3670800D01*
X8914000Y3662800D01*
X8917330Y3646800D01*
X8914000Y3630800D01*
X8904000Y3620800D01*
X8892330Y3614800D01*
X8850670D01*
G01X8892330D02*
X8917330Y3556800D01*
G01X9114000Y3676800D02*
X9100660Y3672800D01*
X9090670Y3662800D01*
X9084000Y3650800D01*
X9079000Y3634800D01*
X9077330Y3616800D01*
X9079000Y3598800D01*
X9084000Y3582800D01*
X9090670Y3570800D01*
X9100660Y3560800D01*
X9114000Y3556800D01*
X9127330Y3560800D01*
X9137330Y3570800D01*
X9144000Y3582800D01*
X9149000Y3598800D01*
X9150670Y3616800D01*
X9149000Y3634800D01*
X9144000Y3650800D01*
X9137330Y3662800D01*
X9127330Y3672800D01*
X9114000Y3676800D01*
G01X9300670Y3556800D02*
Y3676800D01*
X9344000Y3576800D01*
X9387330Y3676800D01*
Y3556800D01*
G01X9415670D02*
Y3676800D01*
X9459000Y3576800D01*
X9502330Y3676800D01*
Y3556800D01*
G01X6895670Y3476800D02*
Y3356800D01*
X6962330D01*
G01X7044000D02*
Y3476800D01*
X7024000Y3452800D01*
G01Y3356800D02*
X7064000D01*
G01X7159000Y3352800D02*
X7155670Y3354800D01*
Y3358800D01*
X7159000Y3360800D01*
X7162330Y3358800D01*
Y3354800D01*
X7159000Y3352800D01*
G01Y3406800D02*
X7155670Y3408800D01*
Y3412800D01*
X7159000Y3414800D01*
X7162330Y3412800D01*
Y3408800D01*
X7159000Y3406800D01*
G01X7389000Y3476800D02*
Y3356800D01*
G01X7350670Y3476800D02*
X7427330D01*
G01X7504000Y3356800D02*
X7490660Y3358800D01*
X7479000Y3366800D01*
X7469000Y3378800D01*
X7462330Y3392800D01*
X7459000Y3408800D01*
Y3424800D01*
X7462330Y3440800D01*
X7469000Y3454800D01*
X7479000Y3466800D01*
X7490660Y3474800D01*
X7504000Y3476800D01*
X7517330Y3474800D01*
X7529000Y3466800D01*
X7539000Y3454800D01*
X7545670Y3440800D01*
X7549000Y3424800D01*
Y3408800D01*
X7545670Y3392800D01*
X7539000Y3378800D01*
X7529000Y3366800D01*
X7517330Y3358800D01*
X7504000Y3356800D01*
G01X7585670D02*
Y3476800D01*
X7625670D01*
X7639000Y3470800D01*
X7649000Y3456800D01*
X7652330Y3440800D01*
X7649000Y3424800D01*
X7640670Y3412800D01*
X7625670Y3406800D01*
X7585670D01*
G01X7885670Y3466800D02*
X7875670Y3472800D01*
X7864000Y3476800D01*
X7850670D01*
X7835660Y3470800D01*
X7824000Y3460800D01*
X7815670Y3448800D01*
X7809000Y3428800D01*
X7807330Y3410800D01*
X7810670Y3392800D01*
X7815670Y3380800D01*
X7825670Y3368800D01*
X7837330Y3360800D01*
X7849000Y3356800D01*
X7860670D01*
X7872330Y3360800D01*
X7882330Y3366800D01*
X7890670Y3374800D01*
G01X7964000Y3356800D02*
X7950660Y3358800D01*
X7939000Y3366800D01*
X7929000Y3378800D01*
X7922330Y3392800D01*
X7919000Y3408800D01*
Y3424800D01*
X7922330Y3440800D01*
X7929000Y3454800D01*
X7939000Y3466800D01*
X7950660Y3474800D01*
X7964000Y3476800D01*
X7977330Y3474800D01*
X7989000Y3466800D01*
X7999000Y3454800D01*
X8005670Y3440800D01*
X8009000Y3424800D01*
Y3408800D01*
X8005670Y3392800D01*
X7999000Y3378800D01*
X7989000Y3366800D01*
X7977330Y3358800D01*
X7964000Y3356800D01*
G01X8040670D02*
Y3476800D01*
X8117330Y3356800D01*
Y3476800D01*
G01X8157330Y3356800D02*
Y3476800D01*
X8190670D01*
X8204000Y3470800D01*
X8214000Y3462800D01*
X8222330Y3450800D01*
X8229000Y3436800D01*
X8230670Y3416800D01*
X8229000Y3396800D01*
X8222330Y3382800D01*
X8214000Y3370800D01*
X8204000Y3362800D01*
X8190670Y3356800D01*
X8157330D01*
G01X8272330Y3476800D02*
Y3390800D01*
X8279000Y3372800D01*
X8292330Y3360800D01*
X8309000Y3356800D01*
X8325670Y3360800D01*
X8339000Y3372800D01*
X8345670Y3390800D01*
Y3476800D01*
G01X8460670Y3466800D02*
X8450670Y3472800D01*
X8439000Y3476800D01*
X8425670D01*
X8410660Y3470800D01*
X8399000Y3460800D01*
X8390670Y3448800D01*
X8384000Y3428800D01*
X8382330Y3410800D01*
X8385670Y3392800D01*
X8390670Y3380800D01*
X8400670Y3368800D01*
X8412330Y3360800D01*
X8424000Y3356800D01*
X8435670D01*
X8447330Y3360800D01*
X8457330Y3366800D01*
X8465670Y3374800D01*
G01X8539000Y3476800D02*
Y3356800D01*
G01X8500670Y3476800D02*
X8577330D01*
G01X8654000Y3356800D02*
X8640660Y3358800D01*
X8629000Y3366800D01*
X8619000Y3378800D01*
X8612330Y3392800D01*
X8609000Y3408800D01*
Y3424800D01*
X8612330Y3440800D01*
X8619000Y3454800D01*
X8629000Y3466800D01*
X8640660Y3474800D01*
X8654000Y3476800D01*
X8667330Y3474800D01*
X8679000Y3466800D01*
X8689000Y3454800D01*
X8695670Y3440800D01*
X8699000Y3424800D01*
Y3408800D01*
X8695670Y3392800D01*
X8689000Y3378800D01*
X8679000Y3366800D01*
X8667330Y3358800D01*
X8654000Y3356800D01*
G01X8735670D02*
Y3476800D01*
X8777330D01*
X8790670Y3470800D01*
X8799000Y3462800D01*
X8802330Y3446800D01*
X8799000Y3430800D01*
X8789000Y3420800D01*
X8777330Y3414800D01*
X8735670D01*
G01X8777330D02*
X8802330Y3356800D01*
G01X8977330Y3396800D02*
X9020670D01*
G01X9265670Y3466800D02*
X9255670Y3472800D01*
X9244000Y3476800D01*
X9230670D01*
X9215660Y3470800D01*
X9204000Y3460800D01*
X9195670Y3448800D01*
X9189000Y3428800D01*
X9187330Y3410800D01*
X9190670Y3392800D01*
X9195670Y3380800D01*
X9205670Y3368800D01*
X9217330Y3360800D01*
X9229000Y3356800D01*
X9240670D01*
X9252330Y3360800D01*
X9262330Y3366800D01*
X9270670Y3374800D01*
G01X9344000Y3356800D02*
X9330660Y3358800D01*
X9319000Y3366800D01*
X9309000Y3378800D01*
X9302330Y3392800D01*
X9299000Y3408800D01*
Y3424800D01*
X9302330Y3440800D01*
X9309000Y3454800D01*
X9319000Y3466800D01*
X9330660Y3474800D01*
X9344000Y3476800D01*
X9357330Y3474800D01*
X9369000Y3466800D01*
X9379000Y3454800D01*
X9385670Y3440800D01*
X9389000Y3424800D01*
Y3408800D01*
X9385670Y3392800D01*
X9379000Y3378800D01*
X9369000Y3366800D01*
X9357330Y3358800D01*
X9344000Y3356800D01*
G01X9425670D02*
Y3476800D01*
X9465670D01*
X9479000Y3470800D01*
X9489000Y3456800D01*
X9492330Y3440800D01*
X9489000Y3424800D01*
X9480670Y3412800D01*
X9465670Y3406800D01*
X9425670D01*
G01X9540670Y3356800D02*
Y3476800D01*
X9580670D01*
X9594000Y3470800D01*
X9604000Y3456800D01*
X9607330Y3440800D01*
X9604000Y3424800D01*
X9595670Y3412800D01*
X9580670Y3406800D01*
X9540670D01*
G01X9722330Y3356800D02*
X9655670D01*
Y3476800D01*
X9722330D01*
G01X9695670Y3418800D02*
X9655670D01*
G01X9770670Y3356800D02*
Y3476800D01*
X9812330D01*
X9825670Y3470800D01*
X9834000Y3462800D01*
X9837330Y3446800D01*
X9834000Y3430800D01*
X9824000Y3420800D01*
X9812330Y3414800D01*
X9770670D01*
G01X9812330D02*
X9837330Y3356800D01*
G01X10034000Y3476800D02*
X10020660Y3472800D01*
X10010670Y3462800D01*
X10004000Y3450800D01*
X9999000Y3434800D01*
X9997330Y3416800D01*
X9999000Y3398800D01*
X10004000Y3382800D01*
X10010670Y3370800D01*
X10020660Y3360800D01*
X10034000Y3356800D01*
X10047330Y3360800D01*
X10057330Y3370800D01*
X10064000Y3382800D01*
X10069000Y3398800D01*
X10070670Y3416800D01*
X10069000Y3434800D01*
X10064000Y3450800D01*
X10057330Y3462800D01*
X10047330Y3472800D01*
X10034000Y3476800D01*
G01X10149000Y3352800D02*
X10145670Y3354800D01*
Y3358800D01*
X10149000Y3360800D01*
X10152330Y3358800D01*
Y3354800D01*
X10149000Y3352800D01*
G01X10264000Y3476800D02*
X10250660Y3472800D01*
X10240670Y3462800D01*
X10234000Y3450800D01*
X10229000Y3434800D01*
X10227330Y3416800D01*
X10229000Y3398800D01*
X10234000Y3382800D01*
X10240670Y3370800D01*
X10250660Y3360800D01*
X10264000Y3356800D01*
X10277330Y3360800D01*
X10287330Y3370800D01*
X10294000Y3382800D01*
X10299000Y3398800D01*
X10300670Y3416800D01*
X10299000Y3434800D01*
X10294000Y3450800D01*
X10287330Y3462800D01*
X10277330Y3472800D01*
X10264000Y3476800D01*
G01X10379000Y3356800D02*
Y3476800D01*
X10359000Y3452800D01*
G01Y3356800D02*
X10399000D01*
G01X10494000D02*
X10505670Y3358800D01*
X10519000Y3364800D01*
X10527330Y3374800D01*
X10530670Y3388800D01*
X10527330Y3402800D01*
X10517330Y3414800D01*
X10502330Y3420800D01*
X10485670D01*
X10475670Y3424800D01*
X10467330Y3434800D01*
X10464000Y3448800D01*
X10469000Y3462800D01*
X10480660Y3472800D01*
X10494000Y3476800D01*
X10507330Y3472800D01*
X10519000Y3462800D01*
X10524000Y3448800D01*
X10520670Y3434800D01*
X10512330Y3424800D01*
X10502330Y3420800D01*
X10485670D01*
X10470670Y3414800D01*
X10460670Y3402800D01*
X10457330Y3388800D01*
X10460670Y3374800D01*
X10469000Y3364800D01*
X10482330Y3358800D01*
X10494000Y3356800D01*
G01X10680670D02*
Y3476800D01*
X10724000Y3376800D01*
X10767330Y3476800D01*
Y3356800D01*
G01X10795670D02*
Y3476800D01*
X10839000Y3376800D01*
X10882330Y3476800D01*
Y3356800D01*
M02*
