G04 ================== begin FILE IDENTIFICATION RECORD ==================*
G04 Layout Name:  CALITESCU ROMEO-ALEXANDRU PROIECT 1 431E.brd*
G04 Film Name:    SMTOP*
G04 File Format:  Gerber RS274X*
G04 File Origin:  Cadence Allegro 16.6-2015-S059*
G04 Origin Date:  Thu Dec 15 19:40:45 2022*
G04 *
G04 Layer:  VIA CLASS/SOLDERMASK_TOP*
G04 Layer:  PIN/SOLDERMASK_TOP*
G04 Layer:  PACKAGE GEOMETRY/SOLDERMASK_TOP*
G04 Layer:  DRC ERROR CLASS/SOLDERMASK_TOP*
G04 Layer:  BOARD GEOMETRY/SOLDERMASK_TOP*
G04 *
G04 Offset:    (0.0000 0.0000)*
G04 Mirror:    No*
G04 Mode:      Positive*
G04 Rotation:  0*
G04 FullContactRelief:  No*
G04 UndefLineWidth:     0.0000*
G04 ================== end FILE IDENTIFICATION RECORD ====================*
%FSLAX25Y25*MOMM*%
%IR0*IPPOS*OFA0.00000B0.00000*MIA0B0*SFA1.00000B1.00000*%
%ADD16C,2.*%
%ADD15R,1.55X2.25*%
%ADD17R,1.1644X1.52*%
%ADD14R,1.52X1.1644*%
%ADD13R,1.52X1.52*%
%ADD11C,1.1176*%
%ADD10R,1.55X1.55*%
%ADD12R,1.724X2.79*%
%ADD18R,1.4692X2.1804*%
%ADD19R,2.1804X1.4692*%
%LPD*%
G75*
G54D10*
X209000Y1447000D03*
Y1677000D03*
X2221000Y1338000D03*
Y1568000D03*
X2822000Y3333000D03*
Y3563000D03*
G54D11*
X177000Y1910000D03*
X796000Y1368000D03*
X677000Y904000D03*
X587000Y1157000D03*
X808000Y2261000D03*
X838000Y2500000D03*
X446000Y2535000D03*
X1233000Y1168000D03*
X1389830Y1002830D03*
X1103870Y1695870D03*
X1206000Y2016000D03*
X1664000Y2383000D03*
X1226000Y2970000D03*
X1100000Y3287000D03*
X2012000Y660000D03*
X1869000Y1039000D03*
X1804000Y904000D03*
X1869000Y2218000D03*
X1850500Y2949500D03*
X2109000Y3285000D03*
X2622000Y660000D03*
X2555500Y1111500D03*
X2587330Y1709670D03*
X3137000Y2730000D03*
X2572360Y2710360D03*
X3034000Y3331000D03*
X3243000Y3209000D03*
G54D12*
X652100Y373000D03*
X321900D03*
X597100Y2207000D03*
X266900D03*
X3395900Y2541000D03*
X3726100D03*
G54D13*
X261000Y826000D03*
Y1039360D03*
X819000Y1078000D03*
X482000Y3213000D03*
X268640D03*
X1441000Y505000D03*
X1654360D03*
X1032360Y1078000D03*
X1018000Y1326000D03*
Y1539360D03*
X1627000Y2045000D03*
X1413640D03*
X1582000Y3489000D03*
X1515000Y3183000D03*
X1301640D03*
X1111000Y3487000D03*
X1324360D03*
X2097000Y505000D03*
X2310360D03*
X2463000Y1365000D03*
Y1578360D03*
X2111000Y2100000D03*
X2324360D03*
X1862000Y2383000D03*
X2075360D03*
X2359000Y2549000D03*
X1795360Y3489000D03*
X2635000Y498000D03*
X2848360D03*
X2805000Y1396000D03*
Y1609360D03*
X3126000Y967000D03*
X3133640Y2045000D03*
X2572360Y2549000D03*
X3672000Y1252000D03*
X3458640D03*
X3339360Y967000D03*
X3347000Y2045000D03*
X3556000Y1693000D03*
X3342640D03*
X3423000Y3115000D03*
X3636360D03*
X3636000Y3350000D03*
X3422640D03*
G54D14*
X925500Y614520D03*
X979300Y1986000D03*
Y1790420D03*
X667300Y2857000D03*
Y2661420D03*
X870500Y2760480D03*
X1128700Y518000D03*
Y713580D03*
X1660700Y746000D03*
X1457500Y842520D03*
X1660700Y941580D03*
X1251300Y1469420D03*
X1454500Y1568480D03*
X1182500Y1889480D03*
X1251300Y1665000D03*
X1598700Y2708000D03*
Y2903580D03*
X1395500Y2804520D03*
X2053700Y2611000D03*
Y2806580D03*
X1850500Y2707520D03*
X2758700Y774000D03*
Y969580D03*
X2555500Y870520D03*
X3136700Y2887000D03*
Y3082580D03*
X2933500Y2983520D03*
G54D15*
X774000Y1562000D03*
X1656000Y1453000D03*
X2257000Y3448000D03*
G54D16*
X500000Y3500000D03*
X3500000Y500000D03*
G54D17*
X983000Y2329300D03*
X1178580D03*
X1079520Y2532500D03*
X1959000Y809300D03*
X2154580D03*
X2055520Y1012500D03*
G54D18*
X2401000Y2922000D03*
X2580000Y1902000D03*
X2780660D03*
X2601660Y2922000D03*
X3071000Y2515000D03*
X2870340D03*
G54D19*
X3181000Y408000D03*
Y608660D03*
M02*
