G04 ================== begin FILE IDENTIFICATION RECORD ==================*
G04 Layout Name:  CALITESCU ROMEO-ALEXANDRU PROIECT 1 431E.brd*
G04 Film Name:    SSTOP*
G04 File Format:  Gerber RS274X*
G04 File Origin:  Cadence Allegro 16.6-2015-S059*
G04 Origin Date:  Thu Dec 15 19:40:55 2022*
G04 *
G04 Layer:  USER PART NUMBER/SILKSCREEN_TOP*
G04 Layer:  TOLERANCE/SILKSCREEN_TOP*
G04 Layer:  REF DES/SILKSCREEN_TOP*
G04 Layer:  PACKAGE GEOMETRY/SILKSCREEN_TOP*
G04 Layer:  DEVICE TYPE/SILKSCREEN_TOP*
G04 Layer:  COMPONENT VALUE/SILKSCREEN_TOP*
G04 Layer:  BOARD GEOMETRY/SILKSCREEN_TOP*
G04 *
G04 Offset:    (0.0000 0.0000)*
G04 Mirror:    No*
G04 Mode:      Positive*
G04 Rotation:  0*
G04 FullContactRelief:  No*
G04 UndefLineWidth:     0.0000*
G04 ================== end FILE IDENTIFICATION RECORD ====================*
%FSLAX25Y25*MOMM*%
%IR0*IPPOS*OFA0.00000B0.00000*MIA0B0*SFA1.00000B1.00000*%
%ADD10C,.1*%
%ADD11C,.2*%
%ADD12C,.1524*%
G75*
%LPD*%
G75*
G54D10*
G01X151670Y2508000D02*
X160000Y2496000D01*
X170000Y2488000D01*
X181670Y2484000D01*
X195000Y2488000D01*
X205000Y2496000D01*
X215000Y2508000D01*
X218330Y2524000D01*
Y2604000D01*
G01X300000Y2484000D02*
Y2604000D01*
X280000Y2580000D01*
G01Y2484000D02*
X320000D01*
G01X84670Y3339000D02*
Y3459000D01*
X126330D01*
X139670Y3453000D01*
X148000Y3445000D01*
X151330Y3429000D01*
X148000Y3413000D01*
X138000Y3403000D01*
X126330Y3397000D01*
X84670D01*
G01X126330D02*
X151330Y3339000D01*
G01X204670Y3353000D02*
X216330Y3343000D01*
X229670Y3339000D01*
X243000Y3343000D01*
X254670Y3355000D01*
X263000Y3373000D01*
X266330Y3391000D01*
Y3413000D01*
X263000Y3431000D01*
X254670Y3447000D01*
X244670Y3455000D01*
X233000Y3459000D01*
X219660Y3455000D01*
X209670Y3447000D01*
X203000Y3435000D01*
X199670Y3419000D01*
X203000Y3405000D01*
X211330Y3391000D01*
X221330Y3383000D01*
X233000Y3381000D01*
X246330Y3385000D01*
X256330Y3395000D01*
X266330Y3413000D01*
G01X420670Y659000D02*
X429000Y647000D01*
X439000Y639000D01*
X450670Y635000D01*
X464000Y639000D01*
X474000Y647000D01*
X484000Y659000D01*
X487330Y675000D01*
Y755000D01*
G01X537330Y735000D02*
X547330Y747000D01*
X559000Y753000D01*
X572330Y755000D01*
X589000Y751000D01*
X600670Y741000D01*
X604000Y729000D01*
X602330Y717000D01*
X595670Y707000D01*
X562330Y687000D01*
X547330Y673000D01*
X537330Y653000D01*
X534000Y635000D01*
X604000D01*
G01X379670Y809000D02*
Y929000D01*
X421330D01*
X434670Y923000D01*
X443000Y915000D01*
X446330Y899000D01*
X443000Y883000D01*
X433000Y873000D01*
X421330Y867000D01*
X379670D01*
G01X421330D02*
X446330Y809000D01*
G01X548000D02*
Y929000D01*
X486330Y843000D01*
X569670D01*
G01X386670Y1175000D02*
Y1295000D01*
X428330D01*
X441670Y1289000D01*
X450000Y1281000D01*
X453330Y1265000D01*
X450000Y1249000D01*
X440000Y1239000D01*
X428330Y1233000D01*
X386670D01*
G01X428330D02*
X453330Y1175000D01*
G01X498330Y1199000D02*
X508330Y1185000D01*
X521660Y1177000D01*
X536670Y1175000D01*
X550000Y1177000D01*
X563330Y1187000D01*
X571670Y1199000D01*
X573330Y1211000D01*
X570000Y1225000D01*
X558330Y1235000D01*
X546670Y1239000D01*
X531670D01*
G01X546670D02*
X556670Y1245000D01*
X565000Y1255000D01*
X568330Y1267000D01*
X565000Y1279000D01*
X556670Y1289000D01*
X541670Y1295000D01*
X526670Y1293000D01*
X511670Y1285000D01*
G01X711670Y840000D02*
Y960000D01*
X753330D01*
X766670Y954000D01*
X775000Y946000D01*
X778330Y930000D01*
X775000Y914000D01*
X765000Y904000D01*
X753330Y898000D01*
X711670D01*
G01X753330D02*
X778330Y840000D01*
G01X823330Y858000D02*
X833330Y848000D01*
X845000Y842000D01*
X860000Y840000D01*
X875000Y844000D01*
X886670Y852000D01*
X895000Y866000D01*
X896670Y882000D01*
X893330Y898000D01*
X885000Y908000D01*
X873330Y916000D01*
X861670Y918000D01*
X850000Y916000D01*
X835000Y908000D01*
X840000Y960000D01*
X885000D01*
G01X399000Y2857000D02*
X385660Y2859000D01*
X374000Y2867000D01*
X364000Y2879000D01*
X357330Y2893000D01*
X354000Y2909000D01*
Y2925000D01*
X357330Y2941000D01*
X364000Y2955000D01*
X374000Y2967000D01*
X385660Y2975000D01*
X399000Y2977000D01*
X412330Y2975000D01*
X424000Y2967000D01*
X434000Y2955000D01*
X440670Y2941000D01*
X444000Y2925000D01*
Y2909000D01*
X440670Y2893000D01*
X434000Y2879000D01*
X424000Y2867000D01*
X412330Y2859000D01*
X399000Y2857000D01*
G01X412330Y2889000D02*
X432330Y2857000D01*
G01X482330Y2907000D02*
X494000Y2921000D01*
X504000Y2929000D01*
X517330Y2933000D01*
X529000Y2929000D01*
X537330Y2921000D01*
X544000Y2909000D01*
X545670Y2895000D01*
X544000Y2883000D01*
X537330Y2871000D01*
X527330Y2861000D01*
X515670Y2857000D01*
X502330Y2861000D01*
X490670Y2873000D01*
X484000Y2891000D01*
X482330Y2911000D01*
X485670Y2937000D01*
X490670Y2951000D01*
X499000Y2965000D01*
X510670Y2975000D01*
X522330Y2977000D01*
X534000Y2973000D01*
X542330Y2963000D01*
G01X779000Y2446000D02*
X765660Y2448000D01*
X754000Y2456000D01*
X744000Y2468000D01*
X737330Y2482000D01*
X734000Y2498000D01*
Y2514000D01*
X737330Y2530000D01*
X744000Y2544000D01*
X754000Y2556000D01*
X765660Y2564000D01*
X779000Y2566000D01*
X792330Y2564000D01*
X804000Y2556000D01*
X814000Y2544000D01*
X820670Y2530000D01*
X824000Y2514000D01*
Y2498000D01*
X820670Y2482000D01*
X814000Y2468000D01*
X804000Y2456000D01*
X792330Y2448000D01*
X779000Y2446000D01*
G01X792330Y2478000D02*
X812330Y2446000D01*
G01X894000D02*
Y2566000D01*
X874000Y2542000D01*
G01Y2446000D02*
X914000D01*
G01X373670Y3871000D02*
X363670Y3877000D01*
X352000Y3881000D01*
X338670D01*
X323660Y3875000D01*
X312000Y3865000D01*
X303670Y3853000D01*
X297000Y3833000D01*
X295330Y3815000D01*
X298670Y3797000D01*
X303670Y3785000D01*
X313670Y3773000D01*
X325330Y3765000D01*
X337000Y3761000D01*
X348670D01*
X360330Y3765000D01*
X370330Y3771000D01*
X378670Y3779000D01*
G01X482000Y3761000D02*
Y3841000D01*
G01Y3827000D02*
X475330Y3835000D01*
X465330Y3839000D01*
X453670Y3841000D01*
X442000Y3837000D01*
X432000Y3829000D01*
X425330Y3817000D01*
X422000Y3801000D01*
X425330Y3785000D01*
X432000Y3773000D01*
X442000Y3765000D01*
X453670Y3761000D01*
X465330Y3763000D01*
X475330Y3769000D01*
X482000Y3777000D01*
G01X567000Y3761000D02*
Y3881000D01*
G01X682000Y3841000D02*
Y3761000D01*
G01Y3873000D02*
X678670Y3875000D01*
Y3879000D01*
X682000Y3881000D01*
X685330Y3879000D01*
Y3875000D01*
X682000Y3873000D01*
G01X797000Y3881000D02*
Y3761000D01*
G01X773670Y3841000D02*
X820330D01*
G01X887000Y3815000D02*
X940330D01*
X935330Y3829000D01*
X927000Y3837000D01*
X915330Y3841000D01*
X903670Y3839000D01*
X893670Y3833000D01*
X887000Y3819000D01*
X883670Y3807000D01*
Y3795000D01*
X887000Y3783000D01*
X895330Y3771000D01*
X905330Y3763000D01*
X917000Y3761000D01*
X928670Y3765000D01*
X940330Y3777000D01*
G01X1002000Y3775000D02*
X1010330Y3767000D01*
X1022000Y3761000D01*
X1032000D01*
X1042000Y3765000D01*
X1048670Y3771000D01*
X1052000Y3779000D01*
X1050330Y3791000D01*
X1043670Y3797000D01*
X1013660Y3809000D01*
X1007000Y3823000D01*
X1010330Y3833000D01*
X1017000Y3839000D01*
X1027000Y3841000D01*
X1037000Y3839000D01*
X1047000Y3833000D01*
G01X1168670Y3831000D02*
X1157000Y3839000D01*
X1147000Y3841000D01*
X1133670Y3837000D01*
X1123670Y3829000D01*
X1117000Y3815000D01*
X1115330Y3801000D01*
X1117000Y3787000D01*
X1123670Y3775000D01*
X1133670Y3765000D01*
X1147000Y3761000D01*
X1158670Y3765000D01*
X1168670Y3773000D01*
G01X1228670Y3841000D02*
Y3785000D01*
X1235330Y3771000D01*
X1245330Y3763000D01*
X1257000Y3761000D01*
X1268670Y3763000D01*
X1278670Y3771000D01*
X1285330Y3785000D01*
G01Y3761000D02*
Y3841000D01*
G01X1453670Y3761000D02*
Y3881000D01*
X1495330D01*
X1508670Y3875000D01*
X1517000Y3867000D01*
X1520330Y3851000D01*
X1517000Y3835000D01*
X1507000Y3825000D01*
X1495330Y3819000D01*
X1453670D01*
G01X1495330D02*
X1520330Y3761000D01*
G01X1602000D02*
X1592000Y3763000D01*
X1582000Y3771000D01*
X1575330Y3785000D01*
X1572000Y3801000D01*
X1575330Y3817000D01*
X1582000Y3831000D01*
X1592000Y3839000D01*
X1602000Y3841000D01*
X1612000Y3839000D01*
X1622000Y3831000D01*
X1628670Y3817000D01*
X1630330Y3801000D01*
X1628670Y3785000D01*
X1622000Y3771000D01*
X1612000Y3763000D01*
X1602000Y3761000D01*
G01X1667000D02*
Y3841000D01*
G01Y3819000D02*
X1672000Y3829000D01*
X1680330Y3837000D01*
X1692000Y3841000D01*
X1703660Y3837000D01*
X1712000Y3829000D01*
X1717000Y3819000D01*
Y3761000D01*
G01Y3819000D02*
X1722000Y3829000D01*
X1730330Y3837000D01*
X1742000Y3841000D01*
X1753670Y3837000D01*
X1762000Y3829000D01*
X1767000Y3817000D01*
Y3761000D01*
G01X1807000Y3815000D02*
X1860330D01*
X1855330Y3829000D01*
X1847000Y3837000D01*
X1835330Y3841000D01*
X1823670Y3839000D01*
X1813670Y3833000D01*
X1807000Y3819000D01*
X1803670Y3807000D01*
Y3795000D01*
X1807000Y3783000D01*
X1815330Y3771000D01*
X1825330Y3763000D01*
X1837000Y3761000D01*
X1848670Y3765000D01*
X1860330Y3777000D01*
G01X1947000Y3761000D02*
X1937000Y3763000D01*
X1927000Y3771000D01*
X1920330Y3785000D01*
X1917000Y3801000D01*
X1920330Y3817000D01*
X1927000Y3831000D01*
X1937000Y3839000D01*
X1947000Y3841000D01*
X1957000Y3839000D01*
X1967000Y3831000D01*
X1973670Y3817000D01*
X1975330Y3801000D01*
X1973670Y3785000D01*
X1967000Y3771000D01*
X1957000Y3763000D01*
X1947000Y3761000D01*
G01X2040330Y3801000D02*
X2083670D01*
G01X2135330Y3761000D02*
X2177000Y3881000D01*
X2218670Y3761000D01*
G01X2203670Y3803000D02*
X2150330D01*
G01X2292000Y3761000D02*
Y3881000D01*
G01X2382000Y3815000D02*
X2435330D01*
X2430330Y3829000D01*
X2422000Y3837000D01*
X2410330Y3841000D01*
X2398670Y3839000D01*
X2388670Y3833000D01*
X2382000Y3819000D01*
X2378670Y3807000D01*
Y3795000D01*
X2382000Y3783000D01*
X2390330Y3771000D01*
X2400330Y3763000D01*
X2412000Y3761000D01*
X2423670Y3765000D01*
X2435330Y3777000D01*
G01X2497000Y3841000D02*
X2547000Y3761000D01*
G01Y3841000D02*
X2497000Y3761000D01*
G01X2667000D02*
Y3841000D01*
G01Y3827000D02*
X2660330Y3835000D01*
X2650330Y3839000D01*
X2638670Y3841000D01*
X2627000Y3837000D01*
X2617000Y3829000D01*
X2610330Y3817000D01*
X2607000Y3801000D01*
X2610330Y3785000D01*
X2617000Y3773000D01*
X2627000Y3765000D01*
X2638670Y3761000D01*
X2650330Y3763000D01*
X2660330Y3769000D01*
X2667000Y3777000D01*
G01X2723670Y3761000D02*
Y3841000D01*
G01Y3821000D02*
X2730330Y3831000D01*
X2740330Y3839000D01*
X2753670Y3841000D01*
X2765330Y3839000D01*
X2775330Y3831000D01*
X2780330Y3817000D01*
Y3761000D01*
G01X2897000Y3881000D02*
Y3761000D01*
G01Y3779000D02*
X2890330Y3769000D01*
X2880330Y3763000D01*
X2868670Y3761000D01*
X2855330Y3765000D01*
X2845330Y3775000D01*
X2838670Y3787000D01*
X2837000Y3801000D01*
X2838670Y3815000D01*
X2845330Y3827000D01*
X2855330Y3837000D01*
X2868670Y3841000D01*
X2880330Y3839000D01*
X2888670Y3835000D01*
X2897000Y3827000D01*
G01X2958670Y3761000D02*
Y3841000D01*
G01Y3825000D02*
X2967000Y3833000D01*
X2975330Y3839000D01*
X2987000Y3841000D01*
X2995330Y3839000D01*
X3005330Y3833000D01*
G01X3068670Y3841000D02*
Y3785000D01*
X3075330Y3771000D01*
X3085330Y3763000D01*
X3097000Y3761000D01*
X3108670Y3763000D01*
X3118670Y3771000D01*
X3125330Y3785000D01*
G01Y3761000D02*
Y3841000D01*
G01X3347000Y3761000D02*
Y3881000D01*
X3285330Y3795000D01*
X3368670D01*
G01X3405330Y3785000D02*
X3415330Y3771000D01*
X3428660Y3763000D01*
X3443670Y3761000D01*
X3457000Y3763000D01*
X3470330Y3773000D01*
X3478670Y3785000D01*
X3480330Y3797000D01*
X3477000Y3811000D01*
X3465330Y3821000D01*
X3453670Y3825000D01*
X3438670D01*
G01X3453670D02*
X3463670Y3831000D01*
X3472000Y3841000D01*
X3475330Y3853000D01*
X3472000Y3865000D01*
X3463670Y3875000D01*
X3448670Y3881000D01*
X3433670Y3879000D01*
X3418670Y3871000D01*
G01X3557000Y3761000D02*
Y3881000D01*
X3537000Y3857000D01*
G01Y3761000D02*
X3577000D01*
G01X3705330D02*
X3638670D01*
Y3881000D01*
X3705330D01*
G01X3678670Y3823000D02*
X3638670D01*
G01X313670Y3623000D02*
Y3743000D01*
X353670D01*
X367000Y3737000D01*
X377000Y3723000D01*
X380330Y3707000D01*
X377000Y3691000D01*
X368670Y3679000D01*
X353670Y3673000D01*
X313670D01*
G01X425330Y3623000D02*
Y3743000D01*
X458670D01*
X472000Y3737000D01*
X482000Y3729000D01*
X490330Y3717000D01*
X497000Y3703000D01*
X498670Y3683000D01*
X497000Y3663000D01*
X490330Y3649000D01*
X482000Y3637000D01*
X472000Y3629000D01*
X458670Y3623000D01*
X425330D01*
G01X613670Y3733000D02*
X603670Y3739000D01*
X592000Y3743000D01*
X578670D01*
X563660Y3737000D01*
X552000Y3727000D01*
X543670Y3715000D01*
X537000Y3695000D01*
X535330Y3677000D01*
X538670Y3659000D01*
X543670Y3647000D01*
X553670Y3635000D01*
X565330Y3627000D01*
X577000Y3623000D01*
X588670D01*
X600330Y3627000D01*
X610330Y3633000D01*
X618670Y3641000D01*
G01X725330Y3623000D02*
X658670D01*
Y3743000D01*
X725330D01*
G01X698670Y3685000D02*
X658670D01*
G01X922000Y3623000D02*
Y3743000D01*
X902000Y3719000D01*
G01Y3623000D02*
X942000D01*
G01X1120330Y3723000D02*
X1130330Y3735000D01*
X1142000Y3741000D01*
X1155330Y3743000D01*
X1172000Y3739000D01*
X1183670Y3729000D01*
X1187000Y3717000D01*
X1185330Y3705000D01*
X1178670Y3695000D01*
X1145330Y3675000D01*
X1130330Y3661000D01*
X1120330Y3641000D01*
X1117000Y3623000D01*
X1187000D01*
G01X1267000Y3743000D02*
X1253660Y3739000D01*
X1243670Y3729000D01*
X1237000Y3717000D01*
X1232000Y3701000D01*
X1230330Y3683000D01*
X1232000Y3665000D01*
X1237000Y3649000D01*
X1243670Y3637000D01*
X1253660Y3627000D01*
X1267000Y3623000D01*
X1280330Y3627000D01*
X1290330Y3637000D01*
X1297000Y3649000D01*
X1302000Y3665000D01*
X1303670Y3683000D01*
X1302000Y3701000D01*
X1297000Y3717000D01*
X1290330Y3729000D01*
X1280330Y3739000D01*
X1267000Y3743000D01*
G01X1350330Y3723000D02*
X1360330Y3735000D01*
X1372000Y3741000D01*
X1385330Y3743000D01*
X1402000Y3739000D01*
X1413670Y3729000D01*
X1417000Y3717000D01*
X1415330Y3705000D01*
X1408670Y3695000D01*
X1375330Y3675000D01*
X1360330Y3661000D01*
X1350330Y3641000D01*
X1347000Y3623000D01*
X1417000D01*
G01X1465330Y3723000D02*
X1475330Y3735000D01*
X1487000Y3741000D01*
X1500330Y3743000D01*
X1517000Y3739000D01*
X1528670Y3729000D01*
X1532000Y3717000D01*
X1530330Y3705000D01*
X1523670Y3695000D01*
X1490330Y3675000D01*
X1475330Y3661000D01*
X1465330Y3641000D01*
X1462000Y3623000D01*
X1532000D01*
G01X1590330Y3663000D02*
X1633670D01*
G01X1695330Y3723000D02*
X1705330Y3735000D01*
X1717000Y3741000D01*
X1730330Y3743000D01*
X1747000Y3739000D01*
X1758670Y3729000D01*
X1762000Y3717000D01*
X1760330Y3705000D01*
X1753670Y3695000D01*
X1720330Y3675000D01*
X1705330Y3661000D01*
X1695330Y3641000D01*
X1692000Y3623000D01*
X1762000D01*
G01X1842000Y3743000D02*
X1828660Y3739000D01*
X1818670Y3729000D01*
X1812000Y3717000D01*
X1807000Y3701000D01*
X1805330Y3683000D01*
X1807000Y3665000D01*
X1812000Y3649000D01*
X1818670Y3637000D01*
X1828660Y3627000D01*
X1842000Y3623000D01*
X1855330Y3627000D01*
X1865330Y3637000D01*
X1872000Y3649000D01*
X1877000Y3665000D01*
X1878670Y3683000D01*
X1877000Y3701000D01*
X1872000Y3717000D01*
X1865330Y3729000D01*
X1855330Y3739000D01*
X1842000Y3743000D01*
G01X1925330Y3723000D02*
X1935330Y3735000D01*
X1947000Y3741000D01*
X1960330Y3743000D01*
X1977000Y3739000D01*
X1988670Y3729000D01*
X1992000Y3717000D01*
X1990330Y3705000D01*
X1983670Y3695000D01*
X1950330Y3675000D01*
X1935330Y3661000D01*
X1925330Y3641000D01*
X1922000Y3623000D01*
X1992000D01*
G01X2035330Y3647000D02*
X2045330Y3633000D01*
X2058660Y3625000D01*
X2073670Y3623000D01*
X2087000Y3625000D01*
X2100330Y3635000D01*
X2108670Y3647000D01*
X2110330Y3659000D01*
X2107000Y3673000D01*
X2095330Y3683000D01*
X2083670Y3687000D01*
X2068670D01*
G01X2083670D02*
X2093670Y3693000D01*
X2102000Y3703000D01*
X2105330Y3715000D01*
X2102000Y3727000D01*
X2093670Y3737000D01*
X2078670Y3743000D01*
X2063670Y3741000D01*
X2048670Y3733000D01*
G01X876670Y3216000D02*
Y3336000D01*
X918330D01*
X931670Y3330000D01*
X940000Y3322000D01*
X943330Y3306000D01*
X940000Y3290000D01*
X930000Y3280000D01*
X918330Y3274000D01*
X876670D01*
G01X918330D02*
X943330Y3216000D01*
G01X1025000D02*
Y3336000D01*
X1005000Y3312000D01*
G01Y3216000D02*
X1045000D01*
G01X1140000Y3336000D02*
X1126660Y3332000D01*
X1116670Y3322000D01*
X1110000Y3310000D01*
X1105000Y3294000D01*
X1103330Y3276000D01*
X1105000Y3258000D01*
X1110000Y3242000D01*
X1116670Y3230000D01*
X1126660Y3220000D01*
X1140000Y3216000D01*
X1153330Y3220000D01*
X1163330Y3230000D01*
X1170000Y3242000D01*
X1175000Y3258000D01*
X1176670Y3276000D01*
X1175000Y3294000D01*
X1170000Y3310000D01*
X1163330Y3322000D01*
X1153330Y3332000D01*
X1140000Y3336000D01*
G01X880670Y3593000D02*
X870670Y3599000D01*
X859000Y3603000D01*
X845670D01*
X830660Y3597000D01*
X819000Y3587000D01*
X810670Y3575000D01*
X804000Y3555000D01*
X802330Y3537000D01*
X805670Y3519000D01*
X810670Y3507000D01*
X820670Y3495000D01*
X832330Y3487000D01*
X844000Y3483000D01*
X855670D01*
X867330Y3487000D01*
X877330Y3493000D01*
X885670Y3501000D01*
G01X959000Y3483000D02*
Y3603000D01*
X939000Y3579000D01*
G01Y3483000D02*
X979000D01*
G01X1436670Y256000D02*
Y376000D01*
X1478330D01*
X1491670Y370000D01*
X1500000Y362000D01*
X1503330Y346000D01*
X1500000Y330000D01*
X1490000Y320000D01*
X1478330Y314000D01*
X1436670D01*
G01X1478330D02*
X1503330Y256000D01*
G01X1553330Y306000D02*
X1565000Y320000D01*
X1575000Y328000D01*
X1588330Y332000D01*
X1600000Y328000D01*
X1608330Y320000D01*
X1615000Y308000D01*
X1616670Y294000D01*
X1615000Y282000D01*
X1608330Y270000D01*
X1598330Y260000D01*
X1586670Y256000D01*
X1573330Y260000D01*
X1561670Y272000D01*
X1555000Y290000D01*
X1553330Y310000D01*
X1556670Y336000D01*
X1561670Y350000D01*
X1570000Y364000D01*
X1581670Y374000D01*
X1593330Y376000D01*
X1605000Y372000D01*
X1613330Y362000D01*
G01X992170Y794860D02*
Y914860D01*
X1025510D01*
X1038840Y908860D01*
X1048840Y900860D01*
X1057170Y888860D01*
X1063840Y874860D01*
X1065510Y854860D01*
X1063840Y834860D01*
X1057170Y820860D01*
X1048840Y808860D01*
X1038840Y800860D01*
X1025510Y794860D01*
X992170D01*
G01X1112170Y914860D02*
X1175510D01*
X1112170Y794860D01*
X1175510D01*
G01X1216670Y1364000D02*
X1206670Y1370000D01*
X1195000Y1374000D01*
X1181670D01*
X1166660Y1368000D01*
X1155000Y1358000D01*
X1146670Y1346000D01*
X1140000Y1326000D01*
X1138330Y1308000D01*
X1141670Y1290000D01*
X1146670Y1278000D01*
X1156670Y1266000D01*
X1168330Y1258000D01*
X1180000Y1254000D01*
X1191670D01*
X1203330Y1258000D01*
X1213330Y1264000D01*
X1221670Y1272000D01*
G01X1258330Y1278000D02*
X1268330Y1264000D01*
X1281660Y1256000D01*
X1296670Y1254000D01*
X1310000Y1256000D01*
X1323330Y1266000D01*
X1331670Y1278000D01*
X1333330Y1290000D01*
X1330000Y1304000D01*
X1318330Y1314000D01*
X1306670Y1318000D01*
X1291670D01*
G01X1306670D02*
X1316670Y1324000D01*
X1325000Y1334000D01*
X1328330Y1346000D01*
X1325000Y1358000D01*
X1316670Y1368000D01*
X1301670Y1374000D01*
X1286670Y1372000D01*
X1271670Y1364000D01*
G01X1560840Y1022860D02*
X1547500Y1024860D01*
X1535840Y1032860D01*
X1525840Y1044860D01*
X1519170Y1058860D01*
X1515840Y1074860D01*
Y1090860D01*
X1519170Y1106860D01*
X1525840Y1120860D01*
X1535840Y1132860D01*
X1547500Y1140860D01*
X1560840Y1142860D01*
X1574170Y1140860D01*
X1585840Y1132860D01*
X1595840Y1120860D01*
X1602510Y1106860D01*
X1605840Y1090860D01*
Y1074860D01*
X1602510Y1058860D01*
X1595840Y1044860D01*
X1585840Y1032860D01*
X1574170Y1024860D01*
X1560840Y1022860D01*
G01X1574170Y1054860D02*
X1594170Y1022860D01*
G01X1675840D02*
X1687510Y1024860D01*
X1700840Y1030860D01*
X1709170Y1040860D01*
X1712510Y1054860D01*
X1709170Y1068860D01*
X1699170Y1080860D01*
X1684170Y1086860D01*
X1667510D01*
X1657510Y1090860D01*
X1649170Y1100860D01*
X1645840Y1114860D01*
X1650840Y1128860D01*
X1662500Y1138860D01*
X1675840Y1142860D01*
X1689170Y1138860D01*
X1700840Y1128860D01*
X1705840Y1114860D01*
X1702510Y1100860D01*
X1694170Y1090860D01*
X1684170Y1086860D01*
X1667510D01*
X1652510Y1080860D01*
X1642510Y1068860D01*
X1639170Y1054860D01*
X1642510Y1040860D01*
X1650840Y1030860D01*
X1664170Y1024860D01*
X1675840Y1022860D01*
G01X1384670Y2162000D02*
Y2282000D01*
X1426330D01*
X1439670Y2276000D01*
X1448000Y2268000D01*
X1451330Y2252000D01*
X1448000Y2236000D01*
X1438000Y2226000D01*
X1426330Y2220000D01*
X1384670D01*
G01X1426330D02*
X1451330Y2162000D01*
G01X1533000D02*
Y2282000D01*
X1513000Y2258000D01*
G01Y2162000D02*
X1553000D01*
G01X1648000D02*
Y2282000D01*
X1628000Y2258000D01*
G01Y2162000D02*
X1668000D01*
G01X961000Y2094000D02*
X947660Y2096000D01*
X936000Y2104000D01*
X926000Y2116000D01*
X919330Y2130000D01*
X916000Y2146000D01*
Y2162000D01*
X919330Y2178000D01*
X926000Y2192000D01*
X936000Y2204000D01*
X947660Y2212000D01*
X961000Y2214000D01*
X974330Y2212000D01*
X986000Y2204000D01*
X996000Y2192000D01*
X1002670Y2178000D01*
X1006000Y2162000D01*
Y2146000D01*
X1002670Y2130000D01*
X996000Y2116000D01*
X986000Y2104000D01*
X974330Y2096000D01*
X961000Y2094000D01*
G01X974330Y2126000D02*
X994330Y2094000D01*
G01X1044330Y2194000D02*
X1054330Y2206000D01*
X1066000Y2212000D01*
X1079330Y2214000D01*
X1096000Y2210000D01*
X1107670Y2200000D01*
X1111000Y2188000D01*
X1109330Y2176000D01*
X1102670Y2166000D01*
X1069330Y2146000D01*
X1054330Y2132000D01*
X1044330Y2112000D01*
X1041000Y2094000D01*
X1111000D01*
G01X1301000Y1734000D02*
X1287660Y1736000D01*
X1276000Y1744000D01*
X1266000Y1756000D01*
X1259330Y1770000D01*
X1256000Y1786000D01*
Y1802000D01*
X1259330Y1818000D01*
X1266000Y1832000D01*
X1276000Y1844000D01*
X1287660Y1852000D01*
X1301000Y1854000D01*
X1314330Y1852000D01*
X1326000Y1844000D01*
X1336000Y1832000D01*
X1342670Y1818000D01*
X1346000Y1802000D01*
Y1786000D01*
X1342670Y1770000D01*
X1336000Y1756000D01*
X1326000Y1744000D01*
X1314330Y1736000D01*
X1301000Y1734000D01*
G01X1314330Y1766000D02*
X1334330Y1734000D01*
G01X1416000D02*
Y1854000D01*
X1396000Y1830000D01*
G01Y1734000D02*
X1436000D01*
G01X1531000Y1854000D02*
X1517660Y1850000D01*
X1507670Y1840000D01*
X1501000Y1828000D01*
X1496000Y1812000D01*
X1494330Y1794000D01*
X1496000Y1776000D01*
X1501000Y1760000D01*
X1507670Y1748000D01*
X1517660Y1738000D01*
X1531000Y1734000D01*
X1544330Y1738000D01*
X1554330Y1748000D01*
X1561000Y1760000D01*
X1566000Y1776000D01*
X1567670Y1794000D01*
X1566000Y1812000D01*
X1561000Y1828000D01*
X1554330Y1840000D01*
X1544330Y1850000D01*
X1531000Y1854000D01*
G01X1228000Y2891000D02*
X1214660Y2893000D01*
X1203000Y2901000D01*
X1193000Y2913000D01*
X1186330Y2927000D01*
X1183000Y2943000D01*
Y2959000D01*
X1186330Y2975000D01*
X1193000Y2989000D01*
X1203000Y3001000D01*
X1214660Y3009000D01*
X1228000Y3011000D01*
X1241330Y3009000D01*
X1253000Y3001000D01*
X1263000Y2989000D01*
X1269670Y2975000D01*
X1273000Y2959000D01*
Y2943000D01*
X1269670Y2927000D01*
X1263000Y2913000D01*
X1253000Y2901000D01*
X1241330Y2893000D01*
X1228000Y2891000D01*
G01X1241330Y2923000D02*
X1261330Y2891000D01*
G01X1339670D02*
X1343000Y2917000D01*
X1348000Y2939000D01*
X1354670Y2959000D01*
X1363000Y2981000D01*
X1376330Y3011000D01*
X1309670D01*
G01X2009670Y263000D02*
Y383000D01*
X2051330D01*
X2064670Y377000D01*
X2073000Y369000D01*
X2076330Y353000D01*
X2073000Y337000D01*
X2063000Y327000D01*
X2051330Y321000D01*
X2009670D01*
G01X2051330D02*
X2076330Y263000D01*
G01X2154670D02*
X2158000Y289000D01*
X2163000Y311000D01*
X2169670Y331000D01*
X2178000Y353000D01*
X2191330Y383000D01*
X2124670D01*
G01X2435670Y1243000D02*
X2425670Y1249000D01*
X2414000Y1253000D01*
X2400670D01*
X2385660Y1247000D01*
X2374000Y1237000D01*
X2365670Y1225000D01*
X2359000Y1205000D01*
X2357330Y1187000D01*
X2360670Y1169000D01*
X2365670Y1157000D01*
X2375670Y1145000D01*
X2387330Y1137000D01*
X2399000Y1133000D01*
X2410670D01*
X2422330Y1137000D01*
X2432330Y1143000D01*
X2440670Y1151000D01*
G01X2482330Y1233000D02*
X2492330Y1245000D01*
X2504000Y1251000D01*
X2517330Y1253000D01*
X2534000Y1249000D01*
X2545670Y1239000D01*
X2549000Y1227000D01*
X2547330Y1215000D01*
X2540670Y1205000D01*
X2507330Y1185000D01*
X2492330Y1171000D01*
X2482330Y1151000D01*
X2479000Y1133000D01*
X2549000D01*
G01X2285860Y959160D02*
X2272520Y961160D01*
X2260860Y969160D01*
X2250860Y981160D01*
X2244190Y995160D01*
X2240860Y1011160D01*
Y1027160D01*
X2244190Y1043160D01*
X2250860Y1057160D01*
X2260860Y1069160D01*
X2272520Y1077160D01*
X2285860Y1079160D01*
X2299190Y1077160D01*
X2310860Y1069160D01*
X2320860Y1057160D01*
X2327530Y1043160D01*
X2330860Y1027160D01*
Y1011160D01*
X2327530Y995160D01*
X2320860Y981160D01*
X2310860Y969160D01*
X2299190Y961160D01*
X2285860Y959160D01*
G01X2299190Y991160D02*
X2319190Y959160D01*
G01X2372530Y973160D02*
X2384190Y963160D01*
X2397530Y959160D01*
X2410860Y963160D01*
X2422530Y975160D01*
X2430860Y993160D01*
X2434190Y1011160D01*
Y1033160D01*
X2430860Y1051160D01*
X2422530Y1067160D01*
X2412530Y1075160D01*
X2400860Y1079160D01*
X2387520Y1075160D01*
X2377530Y1067160D01*
X2370860Y1055160D01*
X2367530Y1039160D01*
X2370860Y1025160D01*
X2379190Y1011160D01*
X2389190Y1003160D01*
X2400860Y1001160D01*
X2414190Y1005160D01*
X2424190Y1015160D01*
X2434190Y1033160D01*
G01X1757670Y1762000D02*
Y1882000D01*
X1799330D01*
X1812670Y1876000D01*
X1821000Y1868000D01*
X1824330Y1852000D01*
X1821000Y1836000D01*
X1811000Y1826000D01*
X1799330Y1820000D01*
X1757670D01*
G01X1799330D02*
X1824330Y1762000D01*
G01X1906000D02*
Y1882000D01*
X1886000Y1858000D01*
G01Y1762000D02*
X1926000D01*
G01X1984330Y1786000D02*
X1994330Y1772000D01*
X2007660Y1764000D01*
X2022670Y1762000D01*
X2036000Y1764000D01*
X2049330Y1774000D01*
X2057670Y1786000D01*
X2059330Y1798000D01*
X2056000Y1812000D01*
X2044330Y1822000D01*
X2032670Y1826000D01*
X2017670D01*
G01X2032670D02*
X2042670Y1832000D01*
X2051000Y1842000D01*
X2054330Y1854000D01*
X2051000Y1866000D01*
X2042670Y1876000D01*
X2027670Y1882000D01*
X2012670Y1880000D01*
X1997670Y1872000D01*
G01X2109670Y1858000D02*
Y1978000D01*
X2151330D01*
X2164670Y1972000D01*
X2173000Y1964000D01*
X2176330Y1948000D01*
X2173000Y1932000D01*
X2163000Y1922000D01*
X2151330Y1916000D01*
X2109670D01*
G01X2151330D02*
X2176330Y1858000D01*
G01X2258000D02*
Y1978000D01*
X2238000Y1954000D01*
G01Y1858000D02*
X2278000D01*
G01X2341330Y1908000D02*
X2353000Y1922000D01*
X2363000Y1930000D01*
X2376330Y1934000D01*
X2388000Y1930000D01*
X2396330Y1922000D01*
X2403000Y1910000D01*
X2404670Y1896000D01*
X2403000Y1884000D01*
X2396330Y1872000D01*
X2386330Y1862000D01*
X2374670Y1858000D01*
X2361330Y1862000D01*
X2349670Y1874000D01*
X2343000Y1892000D01*
X2341330Y1912000D01*
X2344670Y1938000D01*
X2349670Y1952000D01*
X2358000Y1966000D01*
X2369670Y1976000D01*
X2381330Y1978000D01*
X2393000Y1974000D01*
X2401330Y1964000D01*
G01X2320670Y2311000D02*
Y2431000D01*
X2362330D01*
X2375670Y2425000D01*
X2384000Y2417000D01*
X2387330Y2401000D01*
X2384000Y2385000D01*
X2374000Y2375000D01*
X2362330Y2369000D01*
X2320670D01*
G01X2362330D02*
X2387330Y2311000D01*
G01X2469000D02*
Y2431000D01*
X2449000Y2407000D01*
G01Y2311000D02*
X2489000D01*
G01X2604000D02*
Y2431000D01*
X2542330Y2345000D01*
X2625670D01*
G01X1813670Y2255000D02*
X1803670Y2261000D01*
X1792000Y2265000D01*
X1778670D01*
X1763660Y2259000D01*
X1752000Y2249000D01*
X1743670Y2237000D01*
X1737000Y2217000D01*
X1735330Y2199000D01*
X1738670Y2181000D01*
X1743670Y2169000D01*
X1753670Y2157000D01*
X1765330Y2149000D01*
X1777000Y2145000D01*
X1788670D01*
X1800330Y2149000D01*
X1810330Y2155000D01*
X1818670Y2163000D01*
G01X1912000Y2145000D02*
Y2265000D01*
X1850330Y2179000D01*
X1933670D01*
G01X1953840Y2887860D02*
X1940500Y2889860D01*
X1928840Y2897860D01*
X1918840Y2909860D01*
X1912170Y2923860D01*
X1908840Y2939860D01*
Y2955860D01*
X1912170Y2971860D01*
X1918840Y2985860D01*
X1928840Y2997860D01*
X1940500Y3005860D01*
X1953840Y3007860D01*
X1967170Y3005860D01*
X1978840Y2997860D01*
X1988840Y2985860D01*
X1995510Y2971860D01*
X1998840Y2955860D01*
Y2939860D01*
X1995510Y2923860D01*
X1988840Y2909860D01*
X1978840Y2897860D01*
X1967170Y2889860D01*
X1953840Y2887860D01*
G01X1967170Y2919860D02*
X1987170Y2887860D01*
G01X2032170Y2911860D02*
X2042170Y2897860D01*
X2055500Y2889860D01*
X2070510Y2887860D01*
X2083840Y2889860D01*
X2097170Y2899860D01*
X2105510Y2911860D01*
X2107170Y2923860D01*
X2103840Y2937860D01*
X2092170Y2947860D01*
X2080510Y2951860D01*
X2065510D01*
G01X2080510D02*
X2090510Y2957860D01*
X2098840Y2967860D01*
X2102170Y2979860D01*
X2098840Y2991860D01*
X2090510Y3001860D01*
X2075510Y3007860D01*
X2060510Y3005860D01*
X2045510Y2997860D01*
G01X2103330Y3012000D02*
Y3132000D01*
X2136670D01*
X2150000Y3126000D01*
X2160000Y3118000D01*
X2168330Y3106000D01*
X2175000Y3092000D01*
X2176670Y3072000D01*
X2175000Y3052000D01*
X2168330Y3038000D01*
X2160000Y3026000D01*
X2150000Y3018000D01*
X2136670Y3012000D01*
X2103330D01*
G01X2255000D02*
Y3132000D01*
X2235000Y3108000D01*
G01Y3012000D02*
X2275000D01*
G01X1719670Y3243000D02*
Y3363000D01*
X1761330D01*
X1774670Y3357000D01*
X1783000Y3349000D01*
X1786330Y3333000D01*
X1783000Y3317000D01*
X1773000Y3307000D01*
X1761330Y3301000D01*
X1719670D01*
G01X1761330D02*
X1786330Y3243000D01*
G01X1836330Y3343000D02*
X1846330Y3355000D01*
X1858000Y3361000D01*
X1871330Y3363000D01*
X1888000Y3359000D01*
X1899670Y3349000D01*
X1903000Y3337000D01*
X1901330Y3325000D01*
X1894670Y3315000D01*
X1861330Y3295000D01*
X1846330Y3281000D01*
X1836330Y3261000D01*
X1833000Y3243000D01*
X1903000D01*
G01X2544670Y249000D02*
Y369000D01*
X2586330D01*
X2599670Y363000D01*
X2608000Y355000D01*
X2611330Y339000D01*
X2608000Y323000D01*
X2598000Y313000D01*
X2586330Y307000D01*
X2544670D01*
G01X2586330D02*
X2611330Y249000D01*
G01X2693000D02*
Y369000D01*
X2673000Y345000D01*
G01Y249000D02*
X2713000D01*
G01X2771330Y267000D02*
X2781330Y257000D01*
X2793000Y251000D01*
X2808000Y249000D01*
X2823000Y253000D01*
X2834670Y261000D01*
X2843000Y275000D01*
X2844670Y291000D01*
X2841330Y307000D01*
X2833000Y317000D01*
X2821330Y325000D01*
X2809670Y327000D01*
X2798000Y325000D01*
X2783000Y317000D01*
X2788000Y369000D01*
X2833000D01*
G01X3194670Y252000D02*
Y132000D01*
X3261330D01*
G01X3376330D02*
X3309670D01*
Y252000D01*
X3376330D01*
G01X3349670Y194000D02*
X3309670D01*
G01X3421330Y132000D02*
Y252000D01*
X3454670D01*
X3468000Y246000D01*
X3478000Y238000D01*
X3486330Y226000D01*
X3493000Y212000D01*
X3494670Y192000D01*
X3493000Y172000D01*
X3486330Y158000D01*
X3478000Y146000D01*
X3468000Y138000D01*
X3454670Y132000D01*
X3421330D01*
G01X3541330Y232000D02*
X3551330Y244000D01*
X3563000Y250000D01*
X3576330Y252000D01*
X3593000Y248000D01*
X3604670Y238000D01*
X3608000Y226000D01*
X3606330Y214000D01*
X3599670Y204000D01*
X3566330Y184000D01*
X3551330Y170000D01*
X3541330Y150000D01*
X3538000Y132000D01*
X3608000D01*
G01X2924670Y1561000D02*
Y1681000D01*
X2966330D01*
X2979670Y1675000D01*
X2988000Y1667000D01*
X2991330Y1651000D01*
X2988000Y1635000D01*
X2978000Y1625000D01*
X2966330Y1619000D01*
X2924670D01*
G01X2966330D02*
X2991330Y1561000D01*
G01X3073000D02*
Y1681000D01*
X3053000Y1657000D01*
G01Y1561000D02*
X3093000D01*
G01X3156330Y1661000D02*
X3166330Y1673000D01*
X3178000Y1679000D01*
X3191330Y1681000D01*
X3208000Y1677000D01*
X3219670Y1667000D01*
X3223000Y1655000D01*
X3221330Y1643000D01*
X3214670Y1633000D01*
X3181330Y1613000D01*
X3166330Y1599000D01*
X3156330Y1579000D01*
X3153000Y1561000D01*
X3223000D01*
G01X3011670Y1081000D02*
Y1201000D01*
X3053330D01*
X3066670Y1195000D01*
X3075000Y1187000D01*
X3078330Y1171000D01*
X3075000Y1155000D01*
X3065000Y1145000D01*
X3053330Y1139000D01*
X3011670D01*
G01X3053330D02*
X3078330Y1081000D01*
G01X3128330Y1181000D02*
X3138330Y1193000D01*
X3150000Y1199000D01*
X3163330Y1201000D01*
X3180000Y1197000D01*
X3191670Y1187000D01*
X3195000Y1175000D01*
X3193330Y1163000D01*
X3186670Y1153000D01*
X3153330Y1133000D01*
X3138330Y1119000D01*
X3128330Y1099000D01*
X3125000Y1081000D01*
X3195000D01*
G01X3275000Y1201000D02*
X3261660Y1197000D01*
X3251670Y1187000D01*
X3245000Y1175000D01*
X3240000Y1159000D01*
X3238330Y1141000D01*
X3240000Y1123000D01*
X3245000Y1107000D01*
X3251670Y1095000D01*
X3261660Y1085000D01*
X3275000Y1081000D01*
X3288330Y1085000D01*
X3298330Y1095000D01*
X3305000Y1107000D01*
X3310000Y1123000D01*
X3311670Y1141000D01*
X3310000Y1159000D01*
X3305000Y1175000D01*
X3298330Y1187000D01*
X3288330Y1197000D01*
X3275000Y1201000D01*
G01X2658840Y1050860D02*
X2645500Y1052860D01*
X2633840Y1060860D01*
X2623840Y1072860D01*
X2617170Y1086860D01*
X2613840Y1102860D01*
Y1118860D01*
X2617170Y1134860D01*
X2623840Y1148860D01*
X2633840Y1160860D01*
X2645500Y1168860D01*
X2658840Y1170860D01*
X2672170Y1168860D01*
X2683840Y1160860D01*
X2693840Y1148860D01*
X2700510Y1134860D01*
X2703840Y1118860D01*
Y1102860D01*
X2700510Y1086860D01*
X2693840Y1072860D01*
X2683840Y1060860D01*
X2672170Y1052860D01*
X2658840Y1050860D01*
G01X2672170Y1082860D02*
X2692170Y1050860D01*
G01X2773840D02*
Y1170860D01*
X2753840Y1146860D01*
G01Y1050860D02*
X2793840D01*
G01X2888840D02*
Y1170860D01*
X2868840Y1146860D01*
G01Y1050860D02*
X2908840D01*
G01X2497330Y2071000D02*
Y2191000D01*
X2530670D01*
X2544000Y2185000D01*
X2554000Y2177000D01*
X2562330Y2165000D01*
X2569000Y2151000D01*
X2570670Y2131000D01*
X2569000Y2111000D01*
X2562330Y2097000D01*
X2554000Y2085000D01*
X2544000Y2077000D01*
X2530670Y2071000D01*
X2497330D01*
G01X2617330Y2171000D02*
X2627330Y2183000D01*
X2639000Y2189000D01*
X2652330Y2191000D01*
X2669000Y2187000D01*
X2680670Y2177000D01*
X2684000Y2165000D01*
X2682330Y2153000D01*
X2675670Y2143000D01*
X2642330Y2123000D01*
X2627330Y2109000D01*
X2617330Y2089000D01*
X2614000Y2071000D01*
X2684000D01*
G01X2772670Y2793000D02*
Y2673000D01*
X2839330D01*
G01X2954330D02*
X2887670D01*
Y2793000D01*
X2954330D01*
G01X2927670Y2735000D02*
X2887670D01*
G01X2999330Y2673000D02*
Y2793000D01*
X3032670D01*
X3046000Y2787000D01*
X3056000Y2779000D01*
X3064330Y2767000D01*
X3071000Y2753000D01*
X3072670Y2733000D01*
X3071000Y2713000D01*
X3064330Y2699000D01*
X3056000Y2687000D01*
X3046000Y2679000D01*
X3032670Y2673000D01*
X2999330D01*
G01X3151000D02*
Y2793000D01*
X3131000Y2769000D01*
G01Y2673000D02*
X3171000D01*
G01X2935670Y3558000D02*
Y3678000D01*
X2977330D01*
X2990670Y3672000D01*
X2999000Y3664000D01*
X3002330Y3648000D01*
X2999000Y3632000D01*
X2989000Y3622000D01*
X2977330Y3616000D01*
X2935670D01*
G01X2977330D02*
X3002330Y3558000D01*
G01X3084000D02*
Y3678000D01*
X3064000Y3654000D01*
G01Y3558000D02*
X3104000D01*
G01X3036840Y3163860D02*
X3023500Y3165860D01*
X3011840Y3173860D01*
X3001840Y3185860D01*
X2995170Y3199860D01*
X2991840Y3215860D01*
Y3231860D01*
X2995170Y3247860D01*
X3001840Y3261860D01*
X3011840Y3273860D01*
X3023500Y3281860D01*
X3036840Y3283860D01*
X3050170Y3281860D01*
X3061840Y3273860D01*
X3071840Y3261860D01*
X3078510Y3247860D01*
X3081840Y3231860D01*
Y3215860D01*
X3078510Y3199860D01*
X3071840Y3185860D01*
X3061840Y3173860D01*
X3050170Y3165860D01*
X3036840Y3163860D01*
G01X3050170Y3195860D02*
X3070170Y3163860D01*
G01X3171840D02*
Y3283860D01*
X3110170Y3197860D01*
X3193510D01*
G01X3361670Y1454000D02*
Y1574000D01*
X3403330D01*
X3416670Y1568000D01*
X3425000Y1560000D01*
X3428330Y1544000D01*
X3425000Y1528000D01*
X3415000Y1518000D01*
X3403330Y1512000D01*
X3361670D01*
G01X3403330D02*
X3428330Y1454000D01*
G01X3510000D02*
Y1574000D01*
X3490000Y1550000D01*
G01Y1454000D02*
X3530000D01*
G01X3625000D02*
X3636670Y1456000D01*
X3650000Y1462000D01*
X3658330Y1472000D01*
X3661670Y1486000D01*
X3658330Y1500000D01*
X3648330Y1512000D01*
X3633330Y1518000D01*
X3616670D01*
X3606670Y1522000D01*
X3598330Y1532000D01*
X3595000Y1546000D01*
X3600000Y1560000D01*
X3611660Y1570000D01*
X3625000Y1574000D01*
X3638330Y1570000D01*
X3650000Y1560000D01*
X3655000Y1546000D01*
X3651670Y1532000D01*
X3643330Y1522000D01*
X3633330Y1518000D01*
X3616670D01*
X3601670Y1512000D01*
X3591670Y1500000D01*
X3588330Y1486000D01*
X3591670Y1472000D01*
X3600000Y1462000D01*
X3613330Y1456000D01*
X3625000Y1454000D01*
G01X3572670Y1024000D02*
Y1144000D01*
X3614330D01*
X3627670Y1138000D01*
X3636000Y1130000D01*
X3639330Y1114000D01*
X3636000Y1098000D01*
X3626000Y1088000D01*
X3614330Y1082000D01*
X3572670D01*
G01X3614330D02*
X3639330Y1024000D01*
G01X3721000D02*
Y1144000D01*
X3701000Y1120000D01*
G01Y1024000D02*
X3741000D01*
G01X3807670Y1038000D02*
X3819330Y1028000D01*
X3832670Y1024000D01*
X3846000Y1028000D01*
X3857670Y1040000D01*
X3866000Y1058000D01*
X3869330Y1076000D01*
Y1098000D01*
X3866000Y1116000D01*
X3857670Y1132000D01*
X3847670Y1140000D01*
X3836000Y1144000D01*
X3822660Y1140000D01*
X3812670Y1132000D01*
X3806000Y1120000D01*
X3802670Y1104000D01*
X3806000Y1090000D01*
X3814330Y1076000D01*
X3824330Y1068000D01*
X3836000Y1066000D01*
X3849330Y1070000D01*
X3859330Y1080000D01*
X3869330Y1098000D01*
G01X3618670Y2193000D02*
X3627000Y2181000D01*
X3637000Y2173000D01*
X3648670Y2169000D01*
X3662000Y2173000D01*
X3672000Y2181000D01*
X3682000Y2193000D01*
X3685330Y2209000D01*
Y2289000D01*
G01X3730330Y2193000D02*
X3740330Y2179000D01*
X3753660Y2171000D01*
X3768670Y2169000D01*
X3782000Y2171000D01*
X3795330Y2181000D01*
X3803670Y2193000D01*
X3805330Y2205000D01*
X3802000Y2219000D01*
X3790330Y2229000D01*
X3778670Y2233000D01*
X3763670D01*
G01X3778670D02*
X3788670Y2239000D01*
X3797000Y2249000D01*
X3800330Y2261000D01*
X3797000Y2273000D01*
X3788670Y2283000D01*
X3773670Y2289000D01*
X3758670Y2287000D01*
X3743670Y2279000D01*
G01X3467670Y1945000D02*
Y2065000D01*
X3509330D01*
X3522670Y2059000D01*
X3531000Y2051000D01*
X3534330Y2035000D01*
X3531000Y2019000D01*
X3521000Y2009000D01*
X3509330Y2003000D01*
X3467670D01*
G01X3509330D02*
X3534330Y1945000D01*
G01X3616000D02*
Y2065000D01*
X3596000Y2041000D01*
G01Y1945000D02*
X3636000D01*
G01X3727670D02*
X3731000Y1971000D01*
X3736000Y1993000D01*
X3742670Y2013000D01*
X3751000Y2035000D01*
X3764330Y2065000D01*
X3697670D01*
G01X3356670Y2852000D02*
Y2972000D01*
X3398330D01*
X3411670Y2966000D01*
X3420000Y2958000D01*
X3423330Y2942000D01*
X3420000Y2926000D01*
X3410000Y2916000D01*
X3398330Y2910000D01*
X3356670D01*
G01X3398330D02*
X3423330Y2852000D01*
G01X3471670Y2972000D02*
Y2852000D01*
X3538330D01*
G01X3591670Y3612000D02*
X3581670Y3618000D01*
X3570000Y3622000D01*
X3556670D01*
X3541660Y3616000D01*
X3530000Y3606000D01*
X3521670Y3594000D01*
X3515000Y3574000D01*
X3513330Y3556000D01*
X3516670Y3538000D01*
X3521670Y3526000D01*
X3531670Y3514000D01*
X3543330Y3506000D01*
X3555000Y3502000D01*
X3566670D01*
X3578330Y3506000D01*
X3588330Y3512000D01*
X3596670Y3520000D01*
G01X3633330D02*
X3643330Y3510000D01*
X3655000Y3504000D01*
X3670000Y3502000D01*
X3685000Y3506000D01*
X3696670Y3514000D01*
X3705000Y3528000D01*
X3706670Y3544000D01*
X3703330Y3560000D01*
X3695000Y3570000D01*
X3683330Y3578000D01*
X3671670Y3580000D01*
X3660000Y3578000D01*
X3645000Y3570000D01*
X3650000Y3622000D01*
X3695000D01*
G54D11*
G01X491500Y1447000D02*
Y1672000D01*
G01Y1412000D02*
G03X641500Y1562000I0J150000D01*
G03X486500Y1712000I-150081J0D01*
G03X341500Y1562000I4915J-149834D01*
G03X491500Y1412000I150000J0D01*
G01X241500Y1537000D02*
Y1587000D01*
G01X741500Y1422000D02*
Y1312000D01*
X241500D01*
Y1342000D01*
G01X606500Y1562000D02*
X376500D01*
G01X741500Y1702000D02*
Y1812000D01*
X241500D01*
Y1782000D01*
G01X1938500Y1568000D02*
Y1343000D01*
G01X1823500Y1453000D02*
X2053500D01*
G01X1938500Y1603000D02*
G03X1788500Y1453000I0J-150000D01*
G03X1943500Y1303000I150081J0D01*
G03X2088500Y1453000I-4915J149834D01*
G03X1938500Y1603000I-150000J0D01*
G01X2188500Y1478000D02*
Y1428000D01*
G01X1688500Y1313000D02*
Y1203000D01*
X2188500D01*
Y1233000D01*
G01X1688500Y1593000D02*
Y1703000D01*
X2188500D01*
Y1673000D01*
G01X2424500Y3448000D02*
X2654500D01*
G01X2539500Y3598000D02*
G03X2389500Y3448000I0J-150000D01*
G03X2544500Y3298000I150081J0D01*
G03X2689500Y3448000I-4915J149834D01*
G03X2539500Y3598000I-150000J0D01*
G01X2289500Y3308000D02*
Y3198000D01*
X2789500D01*
Y3228000D01*
G01X2289500Y3588000D02*
Y3698000D01*
X2789500D01*
Y3668000D01*
G01X2539500Y3563000D02*
Y3338000D01*
G01X2789500Y3473000D02*
Y3423000D01*
G54D12*
G01X356250Y1135880D02*
Y729480D01*
G01D02*
X165750D01*
G01D02*
Y1135880D01*
G01D02*
X356250D01*
G01X1128880Y982750D02*
X722480D01*
G01D02*
Y1173250D01*
G01D02*
X1128880D01*
G01X172120Y3308250D02*
X578520D01*
G01D02*
Y3117750D01*
G01D02*
X172120D01*
G01D02*
Y3308250D01*
G01X1750880Y409750D02*
X1344480D01*
G01D02*
Y600250D01*
G01D02*
X1750880D01*
G01X1128880Y1173250D02*
Y982750D01*
G01X1113250Y1635880D02*
Y1229480D01*
G01D02*
X922750D01*
G01D02*
Y1635880D01*
G01X1317120Y2140250D02*
X1723520D01*
G01Y1949750D02*
X1317120D01*
G01D02*
Y2140250D01*
G01X922750Y1635880D02*
X1113250D01*
G01X1891880Y3393750D02*
X1485480D01*
G01D02*
Y3584250D01*
G01D02*
X1891880D01*
G01X1205120Y3278250D02*
X1611520D01*
G01D02*
Y3087750D01*
G01D02*
X1205120D01*
G01D02*
Y3278250D01*
G01X1420880Y3391750D02*
X1014480D01*
G01D02*
Y3582250D01*
G01D02*
X1420880D01*
G01D02*
Y3391750D01*
G01X1750880Y600250D02*
Y409750D01*
G01X2406880D02*
X2000480D01*
G01D02*
Y600250D01*
G01D02*
X2406880D01*
G01D02*
Y409750D01*
G01X2558250Y1268480D02*
X2367750D01*
G01D02*
Y1674880D01*
G01X2420880Y2004750D02*
X2014480D01*
G01D02*
Y2195250D01*
G01D02*
X2420880D01*
G01D02*
Y2004750D01*
G01X1723520Y2140250D02*
Y1949750D01*
G01X2171880Y2287750D02*
X1765480D01*
G01D02*
Y2478250D01*
G01X2171880D02*
Y2287750D01*
G01X2367750Y1674880D02*
X2558250D01*
G01X2668880Y2453750D02*
X2262480D01*
G01D02*
Y2644250D01*
G01D02*
X2668880D01*
G01X1765480Y2478250D02*
X2171880D01*
G01X2700720Y2791190D02*
X2299400D01*
G01D02*
Y2900410D01*
G01D02*
X2277810Y2922000D01*
G01D02*
X2299400Y2943590D01*
G01D02*
Y3052810D01*
G01D02*
X2700720D01*
G01X1891880Y3584250D02*
Y3393750D01*
G01X2944880Y402750D02*
X2538480D01*
G01D02*
Y593250D01*
G01D02*
X2944880D01*
G01D02*
Y402750D01*
G01X3202590Y306400D02*
X3181000Y284810D01*
G01D02*
X3159410Y306400D01*
G01D02*
X3050190D01*
G01D02*
Y707720D01*
G01D02*
X3311810D01*
G01X2900250Y1705880D02*
Y1299480D01*
G01D02*
X2709750D01*
G01D02*
Y1705880D01*
G01X3435880Y871750D02*
X3029480D01*
G01D02*
Y1062250D01*
G01D02*
X3435880D01*
G01X2558250Y1674880D02*
Y1268480D01*
G01X2709750Y1705880D02*
X2900250D01*
G01X3037120Y2140250D02*
X3443520D01*
G01Y1949750D02*
X3037120D01*
G01D02*
Y2140250D01*
G01X2879720Y1771190D02*
X2478400D01*
G01D02*
Y1880410D01*
G01D02*
X2456810Y1902000D01*
G01D02*
X2478400Y1923590D01*
G01D02*
Y2032810D01*
G01D02*
X2879720D01*
G01D02*
Y1771190D01*
G01X2668880Y2644250D02*
Y2453750D01*
G01X2700720Y3052810D02*
Y2791190D01*
G01X2771280Y2645810D02*
X3172600D01*
G01D02*
Y2536590D01*
G01D02*
X3194190Y2515000D01*
G01D02*
X3172600Y2493410D01*
G01D02*
Y2384190D01*
G01D02*
X2771280D01*
G01D02*
Y2645810D01*
G01X3311810Y707720D02*
Y306400D01*
G01D02*
X3202590D01*
G01X3362120Y1347250D02*
X3768520D01*
G01D02*
Y1156750D01*
G01D02*
X3362120D01*
G01D02*
Y1347250D01*
G01X3435880Y1062250D02*
Y871750D01*
G01X3443520Y2140250D02*
Y1949750D01*
G01X3246120Y1788250D02*
X3652520D01*
G01D02*
Y1597750D01*
G01D02*
X3246120D01*
G01D02*
Y1788250D01*
G01X3732880Y3019750D02*
X3326480D01*
G01D02*
Y3210250D01*
G01X3732880D02*
Y3019750D01*
G01X3326480Y3210250D02*
X3732880D01*
G01X3326120Y3445250D02*
X3732520D01*
G01D02*
Y3254750D01*
G01D02*
X3326120D01*
G01D02*
Y3445250D01*
M02*
