G04 ================== begin FILE IDENTIFICATION RECORD ==================*
G04 Layout Name:  CALITESCU ROMEO-ALEXANDRU PROIECT 1 431E.brd*
G04 Film Name:    TOP*
G04 File Format:  Gerber RS274X*
G04 File Origin:  Cadence Allegro 16.6-2015-S059*
G04 Origin Date:  Thu Dec 15 19:41:02 2022*
G04 *
G04 Layer:  ETCH/TOP*
G04 Layer:  PIN/TOP*
G04 Layer:  VIA CLASS/TOP*
G04 *
G04 Offset:    (0.0000 0.0000)*
G04 Mirror:    No*
G04 Mode:      Positive*
G04 Rotation:  0*
G04 FullContactRelief:  No*
G04 UndefLineWidth:     0.1000*
G04 ================== end FILE IDENTIFICATION RECORD ====================*
%FSLAX25Y25*MOMM*%
%IR0*IPPOS*OFA0.00000B0.00000*MIA0B0*SFA1.00000B1.00000*%
%ADD17R,.9144X1.27*%
%ADD14R,1.27X.9144*%
%ADD11C,.6096*%
%ADD15R,1.3X2.*%
%ADD16C,1.*%
%ADD12R,1.524X2.54*%
%ADD10R,1.3X1.3*%
%ADD13R,1.27X1.27*%
%ADD18R,1.2192X1.9304*%
%ADD19R,1.9304X1.2192*%
%ADD20C,.7*%
%ADD21C,.45*%
%ADD22C,.55*%
G75*
%LPD*%
G75*
G54D10*
X209000Y1447000D03*
Y1677000D03*
X2221000Y1338000D03*
Y1568000D03*
X2822000Y3333000D03*
Y3563000D03*
G54D20*
G01X261000Y826000D02*
X259000Y824000D01*
Y662000D01*
X321900Y599100D01*
Y373000D01*
G01X587000Y1157000D02*
X674000Y1244000D01*
X843000D01*
X925000Y1326000D01*
X1018000D01*
G01X587000Y1157000D02*
Y1031000D01*
X470000Y914000D01*
Y852000D01*
X444000Y826000D01*
X261000D01*
G01X597100Y2207000D02*
Y2381700D01*
X600000Y2384600D01*
Y2480000D01*
X545000Y2535000D01*
X446000D01*
G01X2221000Y1338000D02*
X2228000Y1331000D01*
Y1192000D01*
X2178000Y1142000D01*
X1507820D01*
X1504320Y1145500D01*
X1488270D01*
X1460460Y1173310D01*
X1455690D01*
X1251300Y1377700D01*
Y1469420D01*
G01X1018000Y1326000D02*
X1019000Y1325000D01*
X1137000D01*
X1167000Y1355000D01*
Y1375000D01*
X1138000Y1404000D01*
Y1441000D01*
X1166420Y1469420D01*
X1251300D01*
G01X2463000Y1365000D02*
X2351800D01*
X2350800Y1364000D01*
X2340000D01*
X2314000Y1338000D01*
X2221000D01*
G01X3458640Y1252000D02*
X3347440D01*
X3346440Y1251000D01*
X2694000D01*
X2580000Y1365000D01*
X2463000D01*
G01X3458640Y1252000D02*
Y1363200D01*
X3460000Y1364560D01*
Y1480000D01*
X3556000Y1576000D01*
Y1693000D01*
G01D02*
Y1804200D01*
X3558000Y1806200D01*
Y2114000D01*
X3395900Y2276100D01*
Y2541000D01*
G01D02*
Y2832900D01*
X3423000Y2860000D01*
Y3115000D01*
G54D11*
X177000Y1910000D03*
X796000Y1368000D03*
X677000Y904000D03*
X587000Y1157000D03*
X808000Y2261000D03*
X838000Y2500000D03*
X446000Y2535000D03*
X1233000Y1168000D03*
X1389830Y1002830D03*
X1103870Y1695870D03*
X1206000Y2016000D03*
X1664000Y2383000D03*
X1226000Y2970000D03*
X1100000Y3287000D03*
X2012000Y660000D03*
X1869000Y1039000D03*
X1804000Y904000D03*
X1869000Y2218000D03*
X1850500Y2949500D03*
X2109000Y3285000D03*
X2622000Y660000D03*
X2555500Y1111500D03*
X2587330Y1709670D03*
X3137000Y2730000D03*
X2572360Y2710360D03*
X3034000Y3331000D03*
X3243000Y3209000D03*
G54D21*
G01X677000Y904000D02*
Y748000D01*
X810480Y614520D01*
X925500D01*
G01X819000Y1078000D02*
Y979300D01*
X817000Y977300D01*
Y815000D01*
X925500Y706500D01*
Y614520D01*
G01X209000Y1447000D02*
Y1204000D01*
X261000Y1152000D01*
Y1039360D01*
G01X796000Y1368000D02*
X831080D01*
X882540Y1419460D01*
Y1507540D01*
X914360Y1539360D01*
X1018000D01*
G01X774000Y1562000D02*
Y1390000D01*
X796000Y1368000D01*
G01X838000Y2500000D02*
X776000Y2438000D01*
Y2363000D01*
X808000Y2331000D01*
Y2261000D01*
G01X209000Y1677000D02*
Y1824640D01*
X249360Y1865000D01*
X748000D01*
X779830Y1833170D01*
Y1703030D01*
X774000Y1697200D01*
Y1562000D01*
G01X1178580Y2329300D02*
Y2236180D01*
X1120420Y2178020D01*
X807020D01*
X772000Y2143000D01*
Y1955000D01*
X936580Y1790420D01*
X979300D01*
G01X838000Y2500000D02*
Y2393380D01*
X902080Y2329300D01*
X983000D01*
G01X1079520Y2532500D02*
Y2719480D01*
X1038520Y2760480D01*
X870500D01*
G01X667300Y2661420D02*
X530410D01*
X482000Y2709830D01*
Y3213000D01*
G01X1395500Y2804520D02*
X1296800D01*
X1296320Y2805000D01*
X1195000D01*
X967000Y3033000D01*
X740600D01*
X667300Y2959700D01*
Y2857000D01*
G01X1959000Y809300D02*
X1842300D01*
X1779000Y746000D01*
X1660700D01*
G01D02*
Y826920D01*
X1662000Y828220D01*
Y834000D01*
X1671360Y843360D01*
X1745950D01*
X1804000Y901410D01*
Y904000D01*
G01X1654360Y505000D02*
Y610420D01*
X1617000Y647780D01*
X1366220D01*
X1280000Y734000D01*
Y1000360D01*
X1306850Y1027210D01*
Y1037210D01*
X1355450Y1085810D01*
X1424210D01*
X1452020Y1058000D01*
X1468070D01*
X1479070Y1047000D01*
X1641000D01*
X1665000Y1023000D01*
Y945880D01*
X1660700Y941580D01*
G01X1389830Y1002830D02*
X1457500Y935160D01*
Y842520D01*
G01X1656000Y1453000D02*
X1555800D01*
X1553800Y1451000D01*
X1498000D01*
X1454500Y1494500D01*
Y1568480D01*
G01X1103870Y1695870D02*
X1011130D01*
X979300Y1727700D01*
Y1790420D01*
G01X1206000Y2016000D02*
Y1973000D01*
X1182500Y1949500D01*
Y1889480D01*
G01X1413640Y2045000D02*
Y1946300D01*
X1384340Y1917000D01*
X1343000D01*
X1288980Y1971020D01*
Y2050380D01*
X1240380Y2098980D01*
X1229110D01*
X1228090Y2100000D01*
X1019000D01*
X979300Y2060300D01*
Y1986000D01*
G01X2111000Y2100000D02*
X2012300D01*
X2011300Y2101000D01*
X1827000D01*
X1703000Y2225000D01*
X1458640D01*
X1413640Y2180000D01*
Y2045000D01*
G01X1627000D02*
Y1863000D01*
X1581000Y1817000D01*
X1313600D01*
X1251300Y1754700D01*
Y1665000D01*
G01X1862000Y2383000D02*
X1664000D01*
G01X2053700Y2611000D02*
X1955000D01*
X1953300Y2609300D01*
X1706300D01*
X1628000Y2531000D01*
Y2504000D01*
X1583000Y2459000D01*
X1399000D01*
X1325500Y2532500D01*
X1079520D01*
G01X1598700Y2903580D02*
X1601000Y2905880D01*
Y3005000D01*
X1515000Y3091000D01*
Y3183000D01*
G01X1598700Y2708000D02*
X1599000Y2707700D01*
Y2610000D01*
X1565000Y2576000D01*
X1447000D01*
X1395500Y2627500D01*
Y2804520D01*
G01D02*
Y2885440D01*
X1390000Y2890940D01*
Y2917000D01*
X1337000Y2970000D01*
X1226000D01*
G01X1324360Y3487000D02*
X1481300D01*
X1483300Y3489000D01*
X1582000D01*
G01X1111000Y3487000D02*
Y3388300D01*
X1109000Y3386300D01*
Y3377000D01*
X1100000Y3368000D01*
Y3287000D01*
G01X1959000Y809300D02*
Y713000D01*
X2012000Y660000D01*
G01X2154580Y809300D02*
X2246700D01*
X2247000Y809000D01*
X2264000D01*
X2310360Y762640D01*
Y505000D01*
G01X2055520Y1012500D02*
X1895500D01*
X1869000Y1039000D01*
G01X1862000Y2383000D02*
Y2279000D01*
X1869000Y2272000D01*
Y2218000D01*
G01X2324360Y2100000D02*
Y2198700D01*
X2326000Y2200340D01*
Y2338000D01*
X2359000Y2371000D01*
Y2549000D01*
G01X2463000Y1578360D02*
X2460640Y1576000D01*
X2334000D01*
X2326000Y1568000D01*
X2221000D01*
G01X1850500Y2707520D02*
Y2949500D01*
G01X2053700Y2611000D02*
Y2530080D01*
X2054000Y2529780D01*
Y2518000D01*
X2075360Y2496640D01*
Y2383000D01*
G01X2401000Y2922000D02*
X2304840D01*
X2300840Y2926000D01*
X2092200D01*
X2053700Y2887500D01*
Y2806580D01*
G01X2109000Y3285000D02*
X2224000D01*
X2257000Y3318000D01*
Y3448000D01*
G01D02*
X2065000D01*
X2024000Y3489000D01*
X1795360D01*
G01X2758700Y969580D02*
X2857400D01*
X2862980Y964000D01*
X2867000D01*
X2905000Y926000D01*
Y701000D01*
X2848360Y644360D01*
Y498000D01*
G01X3181000Y608660D02*
Y805000D01*
X3126000Y860000D01*
Y967000D01*
G01X2758700Y774000D02*
Y693700D01*
X2725000Y660000D01*
X2622000D01*
G01X2555500Y870520D02*
Y1111500D01*
G01X2463000Y1578360D02*
X2561700D01*
X2575060Y1565000D01*
X2618000D01*
X2648320Y1534680D01*
Y1441680D01*
X2694000Y1396000D01*
X2805000D01*
G01X3071000Y2515000D02*
Y2264000D01*
X3072000Y2263000D01*
Y2238000D01*
X3133640Y2176360D01*
Y2045000D01*
G01X2580000Y1902000D02*
Y2189000D01*
X2572360Y2196640D01*
Y2549000D01*
G01X2587330Y1709670D02*
Y1894670D01*
X2580000Y1902000D01*
G01X2805000Y1609360D02*
Y1708060D01*
X2803000Y1710060D01*
Y1755000D01*
X2780660Y1777340D01*
Y1902000D01*
G01X3137000Y2730000D02*
Y2805780D01*
X3136700Y2806080D01*
Y2887000D01*
G01X2572360Y2549000D02*
Y2710360D01*
G01X3034000Y3331000D02*
X2924200D01*
X2922200Y3333000D01*
X2822000D01*
G01X3243000Y3209000D02*
Y3113000D01*
X3212580Y3082580D01*
X3136700D01*
G01D02*
Y3450700D01*
X3138000Y3452000D01*
Y3489000D01*
X3064000Y3563000D01*
X2822000D01*
G01X3672000Y1252000D02*
Y1071000D01*
X3568000Y967000D01*
X3339360D01*
G01X3347000Y2045000D02*
Y1796060D01*
X3342640Y1791700D01*
Y1693000D01*
G01X3243000Y3209000D02*
Y3309000D01*
X3288000Y3354000D01*
X3418640D01*
X3422640Y3350000D01*
G54D12*
X652100Y373000D03*
X321900D03*
X597100Y2207000D03*
X266900D03*
X3395900Y2541000D03*
X3726100D03*
G54D22*
G01X1128700Y518000D02*
X1130000Y516700D01*
Y423000D01*
X1080000Y373000D01*
X652100D01*
G01X266900Y2207000D02*
Y3107560D01*
X268640Y3109300D01*
Y3213000D01*
G01X266900Y2207000D02*
X270000Y2203900D01*
Y2003000D01*
X177000Y1910000D01*
G01X1301640Y3183000D02*
X960720D01*
X771220Y3372500D01*
X487440D01*
X482200Y3373540D01*
X307540D01*
X268640Y3334640D01*
Y3213000D01*
G01X2097000Y505000D02*
X1893000D01*
X1685000Y297000D01*
X1542000D01*
X1441000Y398000D01*
Y505000D01*
G01D02*
X1337300D01*
X1336300Y506000D01*
X1263000D01*
X1251000Y518000D01*
X1128700D01*
G01X1032360Y1078000D02*
X1143000D01*
X1233000Y1168000D01*
G01X2601660Y2922000D02*
Y3075340D01*
X2542000Y3135000D01*
X2066000D01*
X1855300Y3345700D01*
X1329300D01*
X1301640Y3318040D01*
Y3183000D01*
G01X2635000Y498000D02*
X2511680D01*
X2317680Y304000D01*
X2192000D01*
X2097000Y399000D01*
Y505000D01*
G01X3181000Y408000D02*
Y306840D01*
X3183000Y304840D01*
Y211000D01*
X3135000Y163000D01*
X2805000D01*
X2635000Y333000D01*
Y498000D01*
G01X2933500Y2983520D02*
X2933020Y2984000D01*
X2781000D01*
X2719000Y2922000D01*
X2601660D01*
G01X2933500Y2983520D02*
Y2897600D01*
X2932000Y2896100D01*
Y2819000D01*
X2870340Y2757340D01*
Y2515000D01*
G01X3636360Y3115000D02*
Y2915640D01*
X3640000Y2912000D01*
Y2885000D01*
X3726100Y2798900D01*
Y2541000D01*
G01X3636000Y3350000D02*
Y3233000D01*
X3636360Y3232640D01*
Y3115000D01*
G54D13*
X261000Y826000D03*
Y1039360D03*
X819000Y1078000D03*
X482000Y3213000D03*
X268640D03*
X1441000Y505000D03*
X1654360D03*
X1032360Y1078000D03*
X1018000Y1326000D03*
Y1539360D03*
X1627000Y2045000D03*
X1413640D03*
X1582000Y3489000D03*
X1515000Y3183000D03*
X1301640D03*
X1111000Y3487000D03*
X1324360D03*
X2097000Y505000D03*
X2310360D03*
X2463000Y1365000D03*
Y1578360D03*
X2111000Y2100000D03*
X2324360D03*
X1862000Y2383000D03*
X2075360D03*
X2359000Y2549000D03*
X1795360Y3489000D03*
X2635000Y498000D03*
X2848360D03*
X2805000Y1396000D03*
Y1609360D03*
X3126000Y967000D03*
X3133640Y2045000D03*
X2572360Y2549000D03*
X3672000Y1252000D03*
X3458640D03*
X3339360Y967000D03*
X3347000Y2045000D03*
X3556000Y1693000D03*
X3342640D03*
X3423000Y3115000D03*
X3636360D03*
X3636000Y3350000D03*
X3422640D03*
G54D14*
X925500Y614520D03*
X979300Y1986000D03*
Y1790420D03*
X667300Y2857000D03*
Y2661420D03*
X870500Y2760480D03*
X1128700Y518000D03*
Y713580D03*
X1660700Y746000D03*
X1457500Y842520D03*
X1660700Y941580D03*
X1251300Y1469420D03*
X1454500Y1568480D03*
X1182500Y1889480D03*
X1251300Y1665000D03*
X1598700Y2708000D03*
Y2903580D03*
X1395500Y2804520D03*
X2053700Y2611000D03*
Y2806580D03*
X1850500Y2707520D03*
X2758700Y774000D03*
Y969580D03*
X2555500Y870520D03*
X3136700Y2887000D03*
Y3082580D03*
X2933500Y2983520D03*
G54D15*
X774000Y1562000D03*
X1656000Y1453000D03*
X2257000Y3448000D03*
G54D16*
X500000Y3500000D03*
X3500000Y500000D03*
G54D17*
X983000Y2329300D03*
X1178580D03*
X1079520Y2532500D03*
X1959000Y809300D03*
X2154580D03*
X2055520Y1012500D03*
G54D18*
X2401000Y2922000D03*
X2580000Y1902000D03*
X2780660D03*
X2601660Y2922000D03*
X3071000Y2515000D03*
X2870340D03*
G54D19*
X3181000Y408000D03*
Y608660D03*
M02*
